<svg version="1.1" xmlns="http://www.w3.org/2000/svg" viewBox="0 0 1494.6605176648832 1346.6749475705587" width="1494.6605176648832" height="1346.6749475705587">
  <!-- svg-source:excalidraw -->
  
  <defs>
    <style>
      @font-face {
        font-family: "Virgil";
        src: url("https://unpkg.com/@excalidraw/excalidraw@0.13.0-4d26993/dist/excalidraw-assets/Virgil.woff2");
      }
      @font-face {
        font-family: "Cascadia";
        src: url("https://unpkg.com/@excalidraw/excalidraw@0.13.0-4d26993/dist/excalidraw-assets/Cascadia.woff2");
      }
    </style>
  </defs>
  <g stroke-linecap="round" transform="translate(928.5971984863281 432.23559658881277) rotate(0 40.15093994140625 36.62396240234375)"><path d="M39.42 -0.95 C46.62 -1.37, 56.65 2.4, 63.14 6.96 C69.62 11.52, 75.9 19.5, 78.32 26.39 C80.74 33.28, 80.08 41.72, 77.68 48.31 C75.27 54.89, 70.28 61.67, 63.87 65.92 C57.46 70.16, 47.15 73.89, 39.23 73.78 C31.31 73.66, 22.49 69.66, 16.33 65.23 C10.17 60.79, 4.66 53.74, 2.25 47.18 C-0.16 40.62, -0.67 32.74, 1.86 25.86 C4.38 18.98, 10.23 10.21, 17.41 5.89 C24.6 1.58, 39.95 0.73, 44.97 -0.02 C49.99 -0.77, 47.84 0.63, 47.54 1.39 M56.04 1.55 C63 3.71, 71.38 10.98, 75.22 17.24 C79.06 23.5, 80.09 31.83, 79.07 39.11 C78.06 46.38, 74.06 55.32, 69.13 60.9 C64.21 66.49, 56.85 71.01, 49.51 72.63 C42.18 74.25, 32.42 73.42, 25.12 70.63 C17.82 67.83, 10.07 61.86, 5.71 55.87 C1.36 49.88, -1.56 41.8, -1 34.7 C-0.45 27.6, 3.51 18.82, 9.04 13.26 C14.57 7.7, 24.24 3.07, 32.17 1.34 C40.09 -0.38, 52.74 2.42, 56.56 2.91 C60.39 3.39, 55.66 3.81, 55.11 4.25" stroke="#000000" stroke-width="1" fill="none"></path></g><g stroke-linecap="round" transform="translate(934.3190612792969 653.3385628974065) rotate(0 40.15093994140625 36.62396240234375)"><path d="M56.19 2.65 C63.23 5.23, 71.01 12.5, 75.13 18.81 C79.24 25.12, 81.8 33.34, 80.89 40.52 C79.98 47.71, 75.26 56.69, 69.67 61.92 C64.08 67.14, 54.99 70.57, 47.33 71.88 C39.66 73.19, 30.89 72.62, 23.68 69.76 C16.48 66.9, 8.1 61.01, 4.11 54.71 C0.12 48.41, -1.51 39.02, -0.27 31.96 C0.97 24.89, 6.25 17.37, 11.55 12.31 C16.85 7.25, 23.21 2.7, 31.53 1.61 C39.86 0.52, 55.86 4.6, 61.51 5.76 C67.16 6.93, 65.62 7.96, 65.41 8.61 M54.75 3.59 C61.73 5.69, 69.99 11.1, 74.07 17 C78.14 22.9, 79.83 31.58, 79.2 38.99 C78.57 46.4, 75.32 55.75, 70.3 61.46 C65.28 67.17, 56.72 71.77, 49.09 73.24 C41.45 74.72, 31.65 73.5, 24.48 70.29 C17.32 67.09, 9.9 60.37, 6.09 54.01 C2.29 47.65, 0.85 38.94, 1.65 32.13 C2.46 25.32, 5.87 18.29, 10.92 13.17 C15.96 8.04, 24.41 3.17, 31.94 1.38 C39.47 -0.41, 52.02 2.25, 56.11 2.44 C60.19 2.63, 56.84 1.88, 56.45 2.52" stroke="#000000" stroke-width="1" fill="none"></path></g><g stroke-linecap="round" transform="translate(773.5386657714844 383.0072640692815) rotate(0 17.193115234375 55.940277099609375)"><path d="M1.75 -0.76 C5.65 -1.91, 13.52 -0.31, 34.22 1.79 M-0.45 -0.7 C8.81 -0.14, 15.65 0.25, 33.82 -0.18 M36.28 -0.38 C35.23 41.92, 34.2 85.15, 36.01 113.52 M34.75 -0.46 C33.68 31.77, 33.6 64.83, 34.75 112.06 M35.12 110.32 C24.06 110.63, 10.91 113.01, 0.6 112.57 M33.59 111.33 C24.21 112.59, 13.36 112.59, 0.86 112.2 M0.44 110.96 C1.37 78.72, -2.48 50.38, -1.11 0.6 M0.88 110.9 C0.21 71.86, -0.55 30.36, 0.51 -0.98" stroke="#000000" stroke-width="1" fill="none"></path></g><g stroke-linecap="round" transform="translate(788.3312683105469 569.2193307196721) rotate(0 12.51568603515625 12.05157470703125)"><path d="M1.31 6.44 C1.31 6.44, 1.31 6.44, 1.31 6.44 M1.31 6.44 C1.31 6.44, 1.31 6.44, 1.31 6.44 M0.55 12.78 C2.5 8.78, 7.51 5.75, 9.85 3.04 M-0.1 14.87 C2.56 11.27, 5.21 8.79, 10.84 1.59 M3.06 18.28 C6.06 11.64, 11.07 10.81, 17.09 2.95 M2.89 17.35 C7.4 11.64, 12.86 5.78, 16.65 2.02 M3.6 22.39 C7.92 14.84, 15.01 9.34, 20.14 4.7 M4.56 20.87 C9.79 15.1, 13.66 9.1, 21.05 3.08 M6.14 23.1 C11 21.47, 13.19 17.05, 23.82 4.71 M6.61 22.78 C13.46 16.63, 19.66 11.38, 22.71 6.44 M12.72 22.87 C18.99 18.49, 21.82 11.08, 25.71 8.41 M11.86 23.14 C14.83 20.24, 18.99 17.59, 25.59 9.34 M5.73 22.37 C5.73 22.37, 5.73 22.37, 5.73 22.37 M5.73 22.37 C5.73 22.37, 5.73 22.37, 5.73 22.37 M13.08 23.08 C9.06 19.56, 3.7 15.99, 2.34 13.27 M12.3 23.32 C9.35 19.63, 6.1 17.29, 1.32 13.64 M15.32 20.17 C12.04 18.9, 11.37 14.06, 0.85 9.6 M16.96 22.14 C11.19 17.31, 5.88 13.01, 2.87 9.86 M20.89 20.35 C12.7 15.36, 6.56 8.6, 2.2 5.27 M20.98 19.78 C15.71 15.11, 9.35 9.41, 3.63 3.8 M22.53 18.54 C16.62 13.49, 10.28 5.3, 4.61 0.79 M23.71 16.36 C17.45 10.91, 10.92 6.25, 6.77 2.37 M23.65 15.1 C21.13 10.05, 15.91 6.91, 9.32 -0.12 M24.87 13.18 C20.38 9.91, 16.22 5.29, 10.38 -1.39 M22.65 6.15 C20.99 4.16, 20.39 2.28, 16.22 0.18 M22.98 5.64 C21.21 4.25, 19.28 2.34, 17.1 -0.03" stroke="#ced4da" stroke-width="0.5" fill="none"></path><path d="M8.59 0.34 C10.93 -0.69, 14.09 0.09, 16.42 0.84 C18.76 1.59, 21.09 2.73, 22.6 4.85 C24.1 6.96, 25.88 10.81, 25.46 13.55 C25.04 16.29, 22.24 19.54, 20.09 21.27 C17.93 22.99, 14.93 23.74, 12.53 23.91 C10.12 24.09, 7.87 23.7, 5.67 22.32 C3.46 20.94, 0.06 18.27, -0.68 15.64 C-1.42 13.01, -0.27 9.11, 1.21 6.56 C2.68 4, 6.8 1.1, 8.16 0.29 C9.52 -0.53, 9.16 1.41, 9.36 1.66 M11.8 -1.06 C14.43 -1.5, 17.44 -0.29, 19.63 1.63 C21.82 3.55, 24.27 7.6, 24.94 10.48 C25.61 13.36, 24.93 16.75, 23.64 18.92 C22.35 21.08, 19.66 22.91, 17.19 23.46 C14.72 24.01, 11.15 23.26, 8.81 22.21 C6.47 21.16, 4.46 19.04, 3.15 17.14 C1.85 15.24, 0.71 13.11, 1 10.81 C1.29 8.51, 3 5.26, 4.9 3.35 C6.8 1.45, 11.05 0.1, 12.41 -0.61 C13.77 -1.33, 13.2 -1.25, 13.08 -0.96" stroke="#000000" stroke-width="1" fill="none"></path></g><g transform="translate(962.6573181152344 511.5087289130315) rotate(0 12.5 12.5)"><text x="0" y="18" font-family="Virgil, Segoe UI Emoji" font-size="20px" fill="#000000" text-anchor="start" style="white-space: pre;" direction="ltr">p4</text></g><g transform="translate(974.7240905761719 730.4716805731878) rotate(0 12 12.5)"><text x="0" y="18" font-family="Virgil, Segoe UI Emoji" font-size="20px" fill="#000000" text-anchor="start" style="white-space: pre;" direction="ltr">p5</text></g><g stroke-linecap="round" transform="translate(760.0065307617188 545.4845284735784) rotate(0 40.15093994140625 36.62396240234375)"><path d="M33.61 0.29 C40.97 -1.32, 50.88 0.87, 57.93 3.89 C64.97 6.92, 72.13 12.16, 75.88 18.45 C79.63 24.75, 81.44 34.35, 80.43 41.67 C79.42 48.98, 75.4 57.21, 69.8 62.35 C64.21 67.5, 54.62 71.23, 46.85 72.52 C39.07 73.8, 30.2 73.29, 23.18 70.06 C16.15 66.84, 8.61 59.58, 4.71 53.18 C0.81 46.78, -1.31 38.62, -0.2 31.65 C0.9 24.68, 4.77 16.58, 11.32 11.35 C17.87 6.11, 33.71 2.11, 39.08 0.24 C44.44 -1.63, 43.57 -0.45, 43.53 0.12 M24.34 4.45 C30.92 0.97, 40.32 -1.77, 47.76 -0.64 C55.21 0.49, 63.66 5.69, 69 11.23 C74.35 16.77, 78.71 25.28, 79.83 32.6 C80.96 39.92, 79.28 49.03, 75.74 55.16 C72.19 61.29, 65.76 66.6, 58.56 69.37 C51.36 72.14, 40.34 73.2, 32.54 71.77 C24.74 70.34, 16.98 65.87, 11.78 60.78 C6.59 55.69, 2.61 48.15, 1.38 41.23 C0.15 34.32, 0.79 25.57, 4.39 19.3 C8 13.02, 19.72 5.99, 23 3.59 C26.29 1.2, 23.86 4.35, 24.09 4.95" stroke="#000000" stroke-width="1" fill="none"></path></g><g transform="translate(800.4115600585938 622.6176461493596) rotate(0 12.5 12.5)"><text x="0" y="18" font-family="Virgil, Segoe UI Emoji" font-size="20px" fill="#000000" text-anchor="start" style="white-space: pre;" direction="ltr">p6</text></g><g stroke-linecap="round" transform="translate(562.0128784179688 425.35971157904714) rotate(0 40.15093994140625 36.62396240234375)"><path d="M36.28 0 C43.68 -1.09, 54.25 1.75, 61.14 5.33 C68.03 8.91, 74.62 15, 77.61 21.47 C80.61 27.95, 80.94 36.96, 79.11 44.19 C77.29 51.41, 72.68 60.13, 66.68 64.83 C60.67 69.54, 50.9 71.87, 43.09 72.42 C35.28 72.96, 26.43 71.63, 19.83 68.1 C13.24 64.58, 6.63 57.88, 3.52 51.28 C0.4 44.68, -0.52 35.42, 1.15 28.51 C2.81 21.6, 7.05 14.41, 13.51 9.81 C19.97 5.21, 34.71 2.25, 39.89 0.9 C45.07 -0.45, 44.54 1.27, 44.59 1.7 M21.05 3.65 C27.44 0.02, 38.39 -1.7, 46.51 -0.66 C54.63 0.38, 64.32 4.67, 69.76 9.89 C75.2 15.12, 77.88 23.45, 79.14 30.68 C80.4 37.91, 81 46.78, 77.31 53.25 C73.62 59.72, 64.39 66.44, 57 69.48 C49.61 72.52, 40.72 72.88, 32.98 71.48 C25.25 70.09, 16.13 66.17, 10.6 61.11 C5.06 56.06, 0.89 47.85, -0.25 41.17 C-1.39 34.48, -0.16 27.15, 3.78 21.02 C7.71 14.88, 20.32 7.32, 23.37 4.36 C26.42 1.4, 22.23 2.62, 22.09 3.26" stroke="#000000" stroke-width="1" fill="none"></path></g><g transform="translate(602.4179077148438 502.4928292548284) rotate(0 13 12.5)"><text x="0" y="18" font-family="Virgil, Segoe UI Emoji" font-size="20px" fill="#000000" text-anchor="start" style="white-space: pre;" direction="ltr">p2</text></g><g stroke-linecap="round" transform="translate(571.6615600585938 644.9792184149846) rotate(0 40.15093994140625 36.62396240234375)"><path d="M35.69 -0.29 C42.84 -1.44, 52.63 1.6, 59.49 5.38 C66.35 9.17, 73.52 15.85, 76.86 22.4 C80.2 28.94, 81.07 37.83, 79.52 44.65 C77.98 51.47, 73.39 58.45, 67.59 63.31 C61.78 68.18, 52.63 73.13, 44.71 73.83 C36.79 74.53, 26.88 71.05, 20.07 67.5 C13.26 63.95, 6.94 59.11, 3.84 52.54 C0.74 45.97, -0.22 35.26, 1.45 28.1 C3.13 20.94, 7.63 14.29, 13.92 9.57 C20.2 4.85, 34.08 1.23, 39.19 -0.22 C44.3 -1.67, 44.33 0.23, 44.56 0.87 M48.86 1.77 C56.24 2.78, 65.28 6.53, 70.57 11.81 C75.85 17.1, 80.05 25.98, 80.57 33.47 C81.1 40.96, 78.08 50.51, 73.73 56.75 C69.39 62.99, 61.85 68.15, 54.52 70.9 C47.18 73.65, 37.18 74.97, 29.72 73.26 C22.27 71.54, 14.94 66.47, 9.79 60.6 C4.63 54.73, -0.82 45.06, -1.23 38.04 C-1.64 31.01, 3.14 24.11, 7.34 18.47 C11.54 12.83, 16.89 7.29, 23.98 4.19 C31.08 1.08, 45.56 0.24, 49.92 -0.15 C54.28 -0.54, 50.43 1.03, 50.14 1.85" stroke="#000000" stroke-width="1" fill="none"></path></g><g transform="translate(612.0665893554688 722.1123360907659) rotate(0 13 12.5)"><text x="0" y="18" font-family="Virgil, Segoe UI Emoji" font-size="20px" fill="#000000" text-anchor="start" style="white-space: pre;" direction="ltr">p3</text></g><g stroke-linecap="round" transform="translate(328.6387939453125 534.6612862860784) rotate(0 40.15093994140625 36.62396240234375)"><path d="M55.66 4 C62.89 6.45, 71.63 12.67, 75.59 18.69 C79.55 24.7, 80.45 32.96, 79.42 40.1 C78.39 47.24, 74.6 56.05, 69.4 61.51 C64.21 66.97, 55.75 71.35, 48.27 72.84 C40.79 74.33, 31.73 73.49, 24.5 70.46 C17.26 67.42, 9.02 61.05, 4.88 54.63 C0.75 48.21, -1.11 38.89, -0.32 31.94 C0.46 24.98, 4.24 17.97, 9.6 12.88 C14.95 7.79, 22.44 2.13, 31.79 1.39 C41.14 0.65, 58.96 6.02, 65.7 8.44 C72.43 10.85, 72.66 15.39, 72.2 15.87 M54.99 2.71 C62.5 4.63, 71.17 10.46, 75.38 16.31 C79.59 22.17, 81.03 30.59, 80.24 37.86 C79.46 45.14, 75.61 54.06, 70.68 59.96 C65.75 65.86, 58.46 71.73, 50.67 73.26 C42.87 74.8, 31.45 72.28, 23.89 69.16 C16.33 66.04, 9.18 60.54, 5.33 54.54 C1.48 48.53, 0.04 39.97, 0.8 33.13 C1.56 26.28, 5.15 18.61, 9.9 13.46 C14.65 8.31, 21.48 4.09, 29.29 2.23 C37.1 0.37, 52.43 2.24, 56.75 2.3 C61.07 2.37, 55.85 1.83, 55.2 2.63" stroke="#000000" stroke-width="1" fill="none"></path></g><g transform="translate(359.6058349609375 622.5284127509221) rotate(0 9 12.5)"><text x="0" y="18" font-family="Virgil, Segoe UI Emoji" font-size="20px" fill="#000000" text-anchor="start" style="white-space: pre;" direction="ltr">p1</text></g><g stroke-linecap="round" transform="translate(1076.223876953125 525.0396432196721) rotate(0 17.193115234375 55.940277099609375)"><path d="M-1.28 0.85 C10.27 0.47, 22.08 -0.19, 32.41 0.21 M-0.51 -0.81 C9.41 1.09, 17.4 -0.12, 34.95 0.93 M34.14 -1.72 C34.33 37.59, 32.84 76.87, 35.99 112.15 M33.48 -0.12 C32.42 44.25, 32.73 88.39, 34.95 111.81 M36.09 110.64 C25.44 111.27, 18.53 113.15, -1.55 110.68 M34.88 111.58 C25.67 110.72, 18.21 111.52, -0.3 111.09 M0.22 112.63 C-1.17 85.01, -0.2 56.25, -1.19 -1.13 M0.71 111.54 C1.05 70.61, -0.16 27.2, -0.84 -0.73" stroke="#000000" stroke-width="1" fill="none"></path></g><g stroke-linecap="round" transform="translate(790.0228271484375 656.4344796454534) rotate(0 17.193115234375 55.940277099609375)"><path d="M0.55 -0.48 C9.82 -0.31, 16.71 1.74, 33.5 1.41 M0.75 0.4 C10.75 0.87, 23.32 -0.55, 34.72 0.85 M33.65 -1.54 C37.01 35.9, 34.1 66.88, 34.74 112.92 M33.62 -0.13 C34 33.42, 33.41 65.27, 34.62 111.61 M33.13 110.55 C25.42 113.28, 15.11 111.77, 0.29 112.59 M35.2 111.55 C22.24 111.66, 9.66 111.34, 0.43 112.15 M-0.38 112.91 C-1.91 80.5, -1.43 47.34, -1.47 -0.45 M0.41 111.55 C0.26 87.86, 0.67 63.51, 0.82 0" stroke="#000000" stroke-width="1" fill="none"></path></g><g stroke-linecap="round" transform="translate(491.439697265625 518.1783150946721) rotate(0 17.193115234375 55.940277099609375)"><path d="M0.8 -0.7 C6.15 0.38, 14.85 0, 35.88 -1.71 M0.85 0.81 C8.25 -0.11, 16.66 0.42, 33.91 -0.5 M34.29 1.03 C33.27 43.54, 34.54 85.16, 35.38 112.9 M34.88 -0.43 C35.06 30.71, 34.74 62.01, 33.87 112.47 M33.72 112.07 C20.68 113.42, 10.9 110.07, 1.16 110.24 M34.55 111.77 C26.83 112.1, 18.81 112.98, 0.46 111.77 M-0.64 110.23 C-0.33 83.92, -0.55 59.65, -1.66 -1.01 M-0.79 112.47 C0.38 70.98, 0.05 30.15, -0.81 0.46" stroke="#000000" stroke-width="1" fill="none"></path></g><g transform="translate(505.96875 633.1654671942815) rotate(0 9.5 12.5)"><text x="0" y="18" font-family="Virgil, Segoe UI Emoji" font-size="20px" fill="#000000" text-anchor="start" style="white-space: pre;" direction="ltr">t1</text></g><g transform="translate(794.668701171875 774.0048226630315) rotate(0 13.5 12.5)"><text x="0" y="18" font-family="Virgil, Segoe UI Emoji" font-size="20px" fill="#000000" text-anchor="start" style="white-space: pre;" direction="ltr">t3</text></g><g transform="translate(778.1929931640625 355.753968170844) rotate(0 14 12.5)"><text x="0" y="18" font-family="Virgil, Segoe UI Emoji" font-size="20px" fill="#000000" text-anchor="start" style="white-space: pre;" direction="ltr">t2</text></g><g transform="translate(1077.4918212890625 496.4076546942815) rotate(0 13 12.5)"><text x="0" y="18" font-family="Virgil, Segoe UI Emoji" font-size="20px" fill="#000000" text-anchor="start" style="white-space: pre;" direction="ltr">t4</text></g><g stroke-linecap="round"><g transform="translate(414.4296875 570.5248421942815) rotate(0 33.52478695304134 0.6743763606995117)"><path d="M0.5 -0.99 C11.63 -0.59, 56.55 1.83, 67.75 2.34 M-0.7 1.1 C10.26 1.13, 55.87 0.02, 67.22 0.4" stroke="#000000" stroke-width="1" fill="none"></path></g><g transform="translate(414.4296875 570.5248421942815) rotate(0 33.52478695304134 0.6743763606995117)"><path d="M37.37 11.95 C50.23 7.96, 60.39 2.41, 69.1 -0.47 M39.63 9.83 C46.14 7.79, 56.08 5.34, 66.61 0.04" stroke="#000000" stroke-width="1" fill="none"></path></g><g transform="translate(414.4296875 570.5248421942815) rotate(0 33.52478695304134 0.6743763606995117)"><path d="M37.38 -8.57 C50.23 -4.83, 60.38 -2.64, 69.1 -0.47 M39.64 -10.69 C46.19 -6.81, 56.13 -3.34, 66.61 0.04" stroke="#000000" stroke-width="1" fill="none"></path></g></g><g stroke-linecap="round"><g transform="translate(532.140625 542.8139046942815) rotate(0 20.191549352565744 -22.146838972279824)"><path d="M0.76 0.52 C7.48 -6.75, 34.22 -35.65, 40.68 -42.96 M-0.3 -0.26 C6.27 -7.94, 32.9 -37.86, 39.95 -44.81" stroke="#000000" stroke-width="1" fill="none"></path></g><g transform="translate(532.140625 542.8139046942815) rotate(0 20.191549352565744 -22.146838972279824)"><path d="M29.13 -16.88 C32.85 -27.83, 36.04 -34.59, 41.37 -44.85 M29.07 -18.36 C32.63 -28.94, 37.97 -39.74, 39.93 -45.51" stroke="#000000" stroke-width="1" fill="none"></path></g><g transform="translate(532.140625 542.8139046942815) rotate(0 20.191549352565744 -22.146838972279824)"><path d="M14.36 -30.76 C23.02 -37.24, 31.07 -39.42, 41.37 -44.85 M14.31 -32.24 C23.57 -37.33, 34.68 -42.7, 39.93 -45.51" stroke="#000000" stroke-width="1" fill="none"></path></g></g><g stroke-linecap="round"><g transform="translate(534.53125 582.7982796942815) rotate(0 23.87485749856569 33.65428201436066)"><path d="M0.57 0.22 C8.76 11.72, 40.45 56.6, 48.35 68.02 M-0.6 -0.71 C7.58 10.51, 39.81 54.83, 47.8 66.1" stroke="#000000" stroke-width="1" fill="none"></path></g><g transform="translate(534.53125 582.7982796942815) rotate(0 23.87485749856569 33.65428201436066)"><path d="M23.37 50.47 C29.29 53.57, 36.22 57.25, 46.65 66.27 M23.46 48.8 C29.73 52.84, 34.54 56.54, 47.52 66.94" stroke="#000000" stroke-width="1" fill="none"></path></g><g transform="translate(534.53125 582.7982796942815) rotate(0 23.87485749856569 33.65428201436066)"><path d="M40.03 38.49 C41.98 44.46, 45.03 50.93, 46.65 66.27 M40.12 36.82 C42.66 43.7, 43.65 50.14, 47.52 66.94" stroke="#000000" stroke-width="1" fill="none"></path></g></g><g stroke-linecap="round"><g transform="translate(649.6786499023438 461.72299282904714) rotate(0 58.02731275469995 -1.9399928663764001)"><path d="M1.13 1.19 C20.53 0.47, 96.76 -2.61, 115.79 -3.55 M0.26 0.77 C19.52 -0.33, 95.02 -4.44, 114.6 -5.07" stroke="#000000" stroke-width="1" fill="none"></path></g><g transform="translate(649.6786499023438 461.72299282904714) rotate(0 58.02731275469995 -1.9399928663764001)"><path d="M88.88 5.67 C95.58 1.82, 100.91 2.14, 112.82 -4.26 M87.51 7.11 C94.41 4.24, 100.47 0.14, 115.5 -5.2" stroke="#000000" stroke-width="1" fill="none"></path></g><g transform="translate(649.6786499023438 461.72299282904714) rotate(0 58.02731275469995 -1.9399928663764001)"><path d="M87.96 -14.83 C95.02 -13.63, 100.58 -8.24, 112.82 -4.26 M86.59 -13.39 C93.69 -11.13, 99.98 -10.09, 115.5 -5.2" stroke="#000000" stroke-width="1" fill="none"></path></g></g><g stroke-linecap="round"><g transform="translate(818.3359375 446.8060921942815) rotate(0 53.02177162736655 5.512861379310493)"><path d="M-0.05 1.15 C17.89 2.51, 89.72 7.35, 107.58 8.86 M-1.54 0.71 C16.31 2.2, 88.95 9.02, 106.94 10.32" stroke="#000000" stroke-width="1" fill="none"></path></g><g transform="translate(818.3359375 446.8060921942815) rotate(0 53.02177162736655 5.512861379310493)"><path d="M79.9 19.13 C86.15 16.04, 96.85 14.35, 106.34 11.86 M77.45 18.83 C86.21 16.51, 95.56 12.94, 107.16 10.28" stroke="#000000" stroke-width="1" fill="none"></path></g><g transform="translate(818.3359375 446.8060921942815) rotate(0 53.02177162736655 5.512861379310493)"><path d="M81.63 -1.32 C87.49 1.57, 97.68 5.86, 106.34 11.86 M79.17 -1.62 C87.45 2.01, 96.31 4.39, 107.16 10.28" stroke="#000000" stroke-width="1" fill="none"></path></g></g><g stroke-linecap="round"><g transform="translate(533.6015625 562.7904671942815) rotate(0 112.54564254805447 3.1040840025991088)"><path d="M0.72 0.18 C38.34 1.26, 188.06 4.35, 225.45 5.36 M-0.36 -0.77 C37.11 0.63, 187.07 6.12, 224.47 6.98" stroke="#000000" stroke-width="1" fill="none"></path></g><g transform="translate(533.6015625 562.7904671942815) rotate(0 112.54564254805447 3.1040840025991088)"><path d="M196.28 16.27 C204.31 12.77, 213.71 12.83, 225.93 8.44 M196.62 16.41 C207 11.97, 217.67 10.07, 223.86 6.37" stroke="#000000" stroke-width="1" fill="none"></path></g><g transform="translate(533.6015625 562.7904671942815) rotate(0 112.54564254805447 3.1040840025991088)"><path d="M196.91 -4.25 C204.57 -1.99, 213.79 3.82, 225.93 8.44 M197.26 -4.1 C207.36 -0.97, 217.78 4.7, 223.86 6.37" stroke="#000000" stroke-width="1" fill="none"></path></g></g><g stroke-linecap="round" transform="translate(354.930419921875 558.5388192450628) rotate(0 12.51568603515625 12.05157470703125)"><path d="M1.36 6.48 C1.36 6.48, 1.36 6.48, 1.36 6.48 M1.36 6.48 C1.36 6.48, 1.36 6.48, 1.36 6.48 M0.66 15.32 C1.84 10.19, 5.15 6.06, 7.74 3.91 M-0.13 14.19 C1.34 11.88, 3.95 9.36, 8.27 4.33 M3.69 15.08 C8.58 12.81, 11.52 7.75, 13.93 2.8 M2.24 16.18 C7.36 11.53, 11.38 7.28, 16.62 2.02 M4.8 22.25 C7.18 15.86, 10.99 12.17, 17.76 2.89 M4.34 20.53 C8.11 16.41, 10.48 12.55, 18.87 2.97 M6.34 22.32 C11.73 21.21, 15.5 17.58, 24.15 6.92 M8.28 22.07 C11.89 17.29, 17.14 12.28, 22.31 6.71 M12.07 24.79 C15.12 17.43, 22.84 13.63, 26.38 9.15 M12.68 25.09 C16.82 20.87, 21.31 15.24, 25.62 9.09 M15.09 25.32 C19.67 23.59, 22.03 18.92, 25.21 12.89 M15.49 26.03 C18.78 22.38, 22.66 18.3, 26.34 13.9 M6.29 21.72 C6.29 21.72, 6.29 21.72, 6.29 21.72 M6.29 21.72 C6.29 21.72, 6.29 21.72, 6.29 21.72 M14.91 23.02 C10.69 20.71, 7.53 18.28, 2.12 11.8 M13.48 23.69 C11.42 20.43, 9.46 18.25, 2.89 13.23 M19.67 22.66 C16 19.75, 9.44 16.08, 2.34 5.64 M19.29 20.63 C14.02 18.52, 10.84 14.62, 1.18 5.81 M20.94 18.83 C16.82 12.74, 9.36 11.14, 4.69 2.3 M21.73 18.73 C18.99 16.16, 13.38 13.45, 4.61 3.45 M21.64 13.78 C15.27 10.43, 12.22 3.91, 6.75 0.79 M22.67 15.48 C19.96 11.5, 15.05 9.31, 7.02 0.2 M23.85 12 C23.43 9.81, 21.39 7.74, 13.18 0.29 M25.87 11.05 C20.64 8.32, 15.86 2.75, 13.3 1.16" stroke="#ced4da" stroke-width="0.5" fill="none"></path><path d="M6.36 1.41 C8.72 0.28, 12.74 0.23, 15.34 0.89 C17.94 1.55, 20.31 3.46, 21.98 5.37 C23.64 7.27, 25.52 9.76, 25.36 12.33 C25.19 14.89, 23.04 18.7, 20.98 20.77 C18.92 22.83, 15.46 24.56, 12.99 24.7 C10.52 24.84, 8.34 23.22, 6.15 21.6 C3.97 19.98, 0.72 17.46, -0.12 14.98 C-0.95 12.5, -0.25 9.06, 1.15 6.72 C2.54 4.39, 6.82 2.12, 8.26 0.96 C9.69 -0.2, 9.56 -0.46, 9.75 -0.25 M11.04 0 C13.68 -0.81, 16.57 -0.45, 18.78 1.09 C20.99 2.63, 23.63 6.45, 24.29 9.23 C24.96 12.01, 23.77 15.8, 22.78 17.79 C21.78 19.78, 20.44 19.94, 18.34 21.18 C16.23 22.41, 12.73 25.48, 10.16 25.2 C7.6 24.93, 4.6 21.98, 2.94 19.54 C1.28 17.1, 0.29 13.24, 0.19 10.58 C0.08 7.91, 0.65 5.24, 2.32 3.55 C3.98 1.86, 8.72 0.86, 10.19 0.43 C11.66 0, 11.17 0.82, 11.12 0.96" stroke="#000000" stroke-width="1" fill="none"></path></g><g stroke-linecap="round"><g transform="translate(657.1171875 683.0482796942815) rotate(0 61.47385655835268 2.138066677078598)"><path d="M0.17 -0.29 C20.92 0.69, 103.36 3.68, 124.14 4.86 M-1.19 -1.49 C19.44 -0.33, 102.33 4.71, 123.29 5.77" stroke="#000000" stroke-width="1" fill="none"></path></g><g transform="translate(657.1171875 683.0482796942815) rotate(0 61.47385655835268 2.138066677078598)"><path d="M94.07 14.73 C100.44 13.49, 111.52 11.09, 122.97 6.66 M94.21 15.27 C99.36 12.92, 106.55 11.27, 123.78 5.2" stroke="#000000" stroke-width="1" fill="none"></path></g><g transform="translate(657.1171875 683.0482796942815) rotate(0 61.47385655835268 2.138066677078598)"><path d="M95.23 -5.76 C101.11 -1.43, 111.87 1.74, 122.97 6.66 M95.36 -5.22 C100.4 -3.39, 107.35 -0.87, 123.78 5.2" stroke="#000000" stroke-width="1" fill="none"></path></g></g><g stroke-linecap="round"><g transform="translate(833.8984375 708.4935921942815) rotate(0 48.68187205977739 -5.067134232167177)"><path d="M-1.01 -1.11 C15.58 -2.65, 81.59 -7.87, 98.37 -9.13 M0.67 0.93 C17.16 -1, 80.75 -9.15, 97.2 -11.06" stroke="#000000" stroke-width="1" fill="none"></path></g><g transform="translate(833.8984375 708.4935921942815) rotate(0 48.68187205977739 -5.067134232167177)"><path d="M68.62 1.86 C76.53 1.47, 82.82 -1.56, 98.73 -10.56 M70.56 1.61 C78.01 -2.29, 87.13 -6.36, 96.89 -10.76" stroke="#000000" stroke-width="1" fill="none"></path></g><g transform="translate(833.8984375 708.4935921942815) rotate(0 48.68187205977739 -5.067134232167177)"><path d="M66.12 -18.51 C74.56 -14.72, 81.36 -13.57, 98.73 -10.56 M68.06 -18.76 C76.13 -16.27, 86.03 -13.93, 96.89 -10.76" stroke="#000000" stroke-width="1" fill="none"></path></g></g><g stroke-linecap="round"><g transform="translate(845.7734375 584.5560921942815) rotate(0 109.08971900315021 -2.39944732971486)"><path d="M0.22 0.67 C36.64 -0.1, 182.91 -4.58, 219.31 -5.47 M-1.13 -0.02 C35.05 -0.54, 181.2 -2.97, 218.21 -4.1" stroke="#000000" stroke-width="1" fill="none"></path></g><g transform="translate(845.7734375 584.5560921942815) rotate(0 109.08971900315021 -2.39944732971486)"><path d="M191.38 6.31 C199.98 1.09, 211.46 -0.15, 217.58 -3.75 M190.4 6.12 C196.22 3.55, 201.8 1.75, 218.1 -4.33" stroke="#000000" stroke-width="1" fill="none"></path></g><g transform="translate(845.7734375 584.5560921942815) rotate(0 109.08971900315021 -2.39944732971486)"><path d="M190.92 -14.2 C199.54 -11.96, 211.19 -5.73, 217.58 -3.75 M189.94 -14.4 C195.73 -12.6, 201.41 -10.03, 218.1 -4.33" stroke="#000000" stroke-width="1" fill="none"></path></g></g><g stroke-linecap="round"><g transform="translate(1015.96875 484.6107796942815) rotate(0 25.707287649437774 33.73841844521462)"><path d="M-1.07 1.15 C7.84 12.11, 43.68 54.83, 52.48 65.78 M0.57 0.71 C9.46 11.78, 43.47 55.52, 51.87 66.77" stroke="#000000" stroke-width="1" fill="none"></path></g><g transform="translate(1015.96875 484.6107796942815) rotate(0 25.707287649437774 33.73841844521462)"><path d="M28.52 51.67 C30.41 54.25, 37.75 59.26, 52.94 68.13 M27.28 50.18 C34.85 56.68, 45.03 63.35, 50.91 66.06" stroke="#000000" stroke-width="1" fill="none"></path></g><g transform="translate(1015.96875 484.6107796942815) rotate(0 25.707287649437774 33.73841844521462)"><path d="M44.82 39.21 C43.13 44.37, 46.9 52.12, 52.94 68.13 M43.58 37.71 C45.05 48.88, 49.22 60.14, 50.91 66.06" stroke="#000000" stroke-width="1" fill="none"></path></g></g><g stroke-linecap="round"><g transform="translate(1019.4921875 680.9779671942815) rotate(0 26.819797591492602 -37.34733606390654)"><path d="M-1.18 0.18 C8.15 -12.12, 45.63 -62.41, 54.82 -74.88 M0.4 -0.76 C9.74 -12.81, 45.48 -61.47, 54.27 -73.58" stroke="#000000" stroke-width="1" fill="none"></path></g><g transform="translate(1019.4921875 680.9779671942815) rotate(0 26.819797591492602 -37.34733606390654)"><path d="M46.21 -43.53 C47.1 -50.76, 49.23 -57.53, 53.92 -73.31 M45.33 -45.27 C48.41 -50.8, 48.51 -57.64, 53.88 -72.93" stroke="#000000" stroke-width="1" fill="none"></path></g><g transform="translate(1019.4921875 680.9779671942815) rotate(0 26.819797591492602 -37.34733606390654)"><path d="M29.65 -55.64 C33.79 -60.25, 39.28 -64.57, 53.92 -73.31 M28.77 -57.39 C35.31 -60.44, 38.87 -64.75, 53.88 -72.93" stroke="#000000" stroke-width="1" fill="none"></path></g></g><g stroke-linecap="round"><g transform="translate(1126.5874940012272 576.3838636006902) rotate(0 -402.12898110638326 122.70709928370508)"><path d="M1.82 1.84 C18.96 1.95, 37.14 1.09, 68.28 2.04 M0.77 -0.44 C14.88 0.14, 30.01 2.42, 68.5 3.05 M70.21 3.82 C67.33 101.06, 62.54 193.66, 62.51 242.9 M69.52 4.62 C66.01 83.47, 63.39 162.58, 61.45 243.48 M61.21 243.76 C-236.57 245.23, -533.74 246.06, -874.28 246.06 M61.61 244.1 C-170.77 247.36, -402.58 247.87, -874.04 245.72 M-874.46 244.61 C-872.99 150.06, -872.65 52.4, -871.13 -1.61 M-873.43 245.73 C-874.37 164.85, -873.42 82.69, -870.93 0.21 M-872.82 0.03 C-842.81 0.99, -818.42 0.41, -802.63 -1.21 M-870.74 -0.16 C-847.26 -0.76, -822.4 -0.53, -801.17 -0.76" stroke="#000000" stroke-width="1" fill="none"></path></g><g transform="translate(1126.5874940012272 576.3838636006902) rotate(0 -402.12898110638326 122.70709928370508)"><path d="M-827.48 11.51 C-821.13 8.08, -813.63 3.49, -801.7 -2.55 M-828.53 9.23 C-823.15 6.68, -816.68 5.91, -801.48 -1.53" stroke="#000000" stroke-width="1" fill="none"></path></g><g transform="translate(1126.5874940012272 576.3838636006902) rotate(0 -402.12898110638326 122.70709928370508)"><path d="M-827.61 -9.01 C-821.06 -7.05, -813.52 -6.26, -801.7 -2.55 M-828.65 -11.29 C-823.16 -9.47, -816.66 -5.86, -801.48 -1.53" stroke="#000000" stroke-width="1" fill="none"></path></g></g><g transform="translate(249.18865966796875 889.8903207099065) rotate(0 93 12.5)"><text x="0" y="18" font-family="Virgil, Segoe UI Emoji" font-size="20px" fill="#000000" text-anchor="start" style="white-space: pre;" direction="ltr">1. k-ограниченность</text></g><g transform="translate(254.89178466796875 917.6408132997631) rotate(0 264 25)"><text x="0" y="18" font-family="Virgil, Segoe UI Emoji" font-size="20px" fill="#5f3dc4" text-anchor="start" style="white-space: pre;" direction="ltr">для любой позиции h(pi) кол-во меток не превышает k</text><text x="0" y="43" font-family="Virgil, Segoe UI Emoji" font-size="20px" fill="#5f3dc4" text-anchor="start" style="white-space: pre;" direction="ltr">h(pi) &lt;= 3 - следовательно сеть k-ограниченая</text></g><g transform="translate(554.481689453125 395.18042080756277) rotate(0 43.5 12.5)"><text x="0" y="18" font-family="Virgil, Segoe UI Emoji" font-size="20px" fill="#5f3dc4" text-anchor="start" style="white-space: pre;" direction="ltr">h(pi) &lt; 3</text></g><g transform="translate(10 156.61859219428152) rotate(0 91 25)"><text x="0" y="18" font-family="Virgil, Segoe UI Emoji" font-size="20px" fill="#000000" text-anchor="start" style="white-space: pre;" direction="ltr">p1 p2 p3 p4 p5 p6</text><text x="0" y="43" font-family="Virgil, Segoe UI Emoji" font-size="20px" fill="#000000" text-anchor="start" style="white-space: pre;" direction="ltr"> 1  0  0 0  0  1</text></g><g stroke-linecap="round"><g transform="translate(200.9765625 173.08734219428152) rotate(0 53.71539652021602 -0.25278770874106726)"><path d="M0.64 0.99 C36.83 0.5, 77.44 -1.93, 107.88 -1.43 M-0.45 -0.76 C22.78 -0.65, 46.12 0.18, 107.86 0.56" stroke="#000000" stroke-width="1" fill="none"></path></g><g transform="translate(200.9765625 173.08734219428152) rotate(0 53.71539652021602 -0.25278770874106726)"><path d="M80.22 11.55 C87.85 8.13, 99.81 2.07, 107.79 -0.96 M79.13 9.8 C85.12 7.89, 91.2 6.54, 107.78 1.03" stroke="#000000" stroke-width="1" fill="none"></path></g><g transform="translate(200.9765625 173.08734219428152) rotate(0 53.71539652021602 -0.25278770874106726)"><path d="M80.41 -8.97 C87.8 -5.01, 99.69 -3.69, 107.79 -0.96 M79.32 -10.72 C85.21 -8.18, 91.24 -5.09, 107.78 1.03" stroke="#000000" stroke-width="1" fill="none"></path></g></g><g transform="translate(233.014892578125 139.22253506537527) rotate(0 9.5 12.5)"><text x="0" y="18" font-family="Virgil, Segoe UI Emoji" font-size="20px" fill="#000000" text-anchor="start" style="white-space: pre;" direction="ltr">t1</text></g><g transform="translate(321.044921875 145.36187832709402) rotate(0 91 25)"><text x="0" y="18" font-family="Virgil, Segoe UI Emoji" font-size="20px" fill="#000000" text-anchor="start" style="white-space: pre;" direction="ltr">p1 p2 p3 p4 p5 p6</text><text x="0" y="43" font-family="Virgil, Segoe UI Emoji" font-size="20px" fill="#000000" text-anchor="start" style="white-space: pre;" direction="ltr">0  1   1  0  0  2</text></g><g stroke-linecap="round"><g transform="translate(508.6796875 159.73797697079587) rotate(0 45.420614348724484 -33.99707059913399)"><path d="M-1.97 -1.69 C22.62 -19.04, 42.96 -35.29, 92.81 -68.51 M-0.76 0.52 C25.54 -18.78, 50.89 -38.19, 91.81 -67.39" stroke="#000000" stroke-width="1" fill="none"></path></g><g transform="translate(508.6796875 159.73797697079587) rotate(0 45.420614348724484 -33.99707059913399)"><path d="M73 -44.25 C79.29 -50.55, 81.27 -56.26, 92.74 -67.99 M74.21 -42.05 C79.47 -49.57, 84.03 -57.05, 91.74 -66.88" stroke="#000000" stroke-width="1" fill="none"></path></g><g transform="translate(508.6796875 159.73797697079587) rotate(0 45.420614348724484 -33.99707059913399)"><path d="M60.98 -60.89 C70.22 -63.2, 75.14 -64.84, 92.74 -67.99 M62.19 -58.68 C70.68 -61.57, 78.57 -64.44, 91.74 -66.88" stroke="#000000" stroke-width="1" fill="none"></path></g></g><g stroke-linecap="round"><g transform="translate(508.421875 173.5032321021991) rotate(0 49.55060817953199 24.018997979904157)"><path d="M0.79 0.43 C29.79 15.12, 58.51 27.97, 99.17 47.61 M-0.2 0.95 C21.11 10.53, 44.57 21.58, 99.3 46.38" stroke="#000000" stroke-width="1" fill="none"></path></g><g transform="translate(508.421875 173.5032321021991) rotate(0 49.55060817953199 24.018997979904157)"><path d="M70.18 44.47 C79.39 45.88, 87.9 46.07, 98.77 47.93 M69.19 44.99 C75.43 44.53, 83.45 45.91, 98.9 46.7" stroke="#000000" stroke-width="1" fill="none"></path></g><g transform="translate(508.421875 173.5032321021991) rotate(0 49.55060817953199 24.018997979904157)"><path d="M78.68 25.79 C85.25 32.54, 91.29 38.14, 98.77 47.93 M77.7 26.31 C81.9 29.94, 88.04 35.45, 98.9 46.7" stroke="#000000" stroke-width="1" fill="none"></path></g></g><g transform="translate(615.953125 197.55609219428152) rotate(0 91 25)"><text x="0" y="18" font-family="Virgil, Segoe UI Emoji" font-size="20px" fill="#000000" text-anchor="start" style="white-space: pre;" direction="ltr">p1 p2 p3 p4 p5 p6</text><text x="0" y="43" font-family="Virgil, Segoe UI Emoji" font-size="20px" fill="#000000" text-anchor="start" style="white-space: pre;" direction="ltr">0  1  0  0  1  2</text></g><g transform="translate(611.514892578125 66.57051174994558) rotate(0 91 25)"><text x="0" y="18" font-family="Virgil, Segoe UI Emoji" font-size="20px" fill="#000000" text-anchor="start" style="white-space: pre;" direction="ltr">p1 p2 p3 p4 p5 p6</text><text x="0" y="43" font-family="Virgil, Segoe UI Emoji" font-size="20px" fill="#000000" text-anchor="start" style="white-space: pre;" direction="ltr">0  0  1   1  0  2</text></g><g transform="translate(555.96875 173.16546719428152) rotate(0 13.5 12.5)"><text x="0" y="18" font-family="Virgil, Segoe UI Emoji" font-size="20px" fill="#000000" text-anchor="start" style="white-space: pre;" direction="ltr">t3</text></g><g transform="translate(535.96875 105.16546719428152) rotate(0 14 12.5)"><text x="0" y="18" font-family="Virgil, Segoe UI Emoji" font-size="20px" fill="#000000" text-anchor="start" style="white-space: pre;" direction="ltr">t2</text></g><g stroke-linecap="round"><g transform="translate(792.3671875 93.64202969428152) rotate(0 49.209083731906446 64.99880464188755)"><path d="M0.92 -0.26 C35.76 21.59, 72.5 39.96, 97.66 56.34 M0.76 -0.01 C36.44 20.72, 71.74 42.21, 97.06 54.98 M96.84 54.3 C63.04 85.2, 26.12 113.87, 5.68 130.26 M95.42 56.11 C70.58 76.1, 45.06 96.2, 6.46 128.99" stroke="#000000" stroke-width="1" fill="none"></path></g></g><g stroke-linecap="round"><g transform="translate(1080.4307357043065 149.5838623022384) rotate(0 -464.510640365981 -67.62745400785496)"><path d="M1.55 1.86 C6.27 -1.27, 11.98 2.63, 27.32 1.01 M-0.57 -0.26 C9.67 0.64, 19.46 1.86, 29.5 3.57 M27.18 4.33 C30.25 -38.38, 28.45 -77.42, 26.8 -127.14 M28.72 2.48 C27.47 -25.05, 27.76 -52.81, 27.77 -127.4 M27.77 -128.54 C-316.54 -131.09, -658.75 -133.9, -957.45 -139.5 M27.58 -128.34 C-274.75 -131.93, -576.37 -135.26, -958.06 -138.55 M-958.52 -137.66 C-954.68 -86.09, -952.95 -34.43, -954.08 -2.5 M-957.73 -139.58 C-959.11 -93.15, -957.23 -47.32, -955.59 -4.52" stroke="#000000" stroke-width="1" fill="none"></path></g><g transform="translate(1080.4307357043065 149.5838623022384) rotate(0 -464.510640365981 -67.62745400785496)"><path d="M-965.33 -30.45 C-964.66 -27.73, -962.98 -18.08, -957.13 -6.26 M-967.44 -32.57 C-963.67 -22.74, -960.11 -12.66, -954.96 -3.71" stroke="#000000" stroke-width="1" fill="none"></path></g><g transform="translate(1080.4307357043065 149.5838623022384) rotate(0 -464.510640365981 -67.62745400785496)"><path d="M-944.82 -31.21 C-948.86 -28.2, -951.89 -18.38, -957.13 -6.26 M-946.94 -33.33 C-950.43 -23.14, -954.13 -12.79, -954.96 -3.71" stroke="#000000" stroke-width="1" fill="none"></path></g></g><g transform="translate(580.8203125 14.743592194281518) rotate(0 13 12.5)"><text x="0" y="18" font-family="Virgil, Segoe UI Emoji" font-size="20px" fill="#000000" text-anchor="start" style="white-space: pre;" direction="ltr">t4</text></g><g transform="translate(245.96875 973.2904671942815) rotate(0 84 12.5)"><text x="0" y="18" font-family="Virgil, Segoe UI Emoji" font-size="20px" fill="#000000" text-anchor="start" style="white-space: pre;" direction="ltr">2. безопастность</text></g><g transform="translate(252.609375 1004.3295296942815) rotate(0 161 12.5)"><text x="0" y="18" font-family="Virgil, Segoe UI Emoji" font-size="20px" fill="#5f3dc4" text-anchor="start" style="white-space: pre;" direction="ltr">нет, так как сеть 2-ограничена</text></g><g transform="translate(247.288330078125 1031.273255280219) rotate(0 83.5 12.5)"><text x="0" y="18" font-family="Virgil, Segoe UI Emoji" font-size="20px" fill="#000000" text-anchor="start" style="white-space: pre;" direction="ltr">3. ограниченость</text></g><g transform="translate(256.02294921875 1058.253235748969) rotate(0 38.5 12.5)"><text x="0" y="18" font-family="Virgil, Segoe UI Emoji" font-size="20px" fill="#5f3dc4" text-anchor="start" style="white-space: pre;" direction="ltr">да, k=2</text></g><g transform="translate(245.9917186516351 1086.8355274864514) rotate(0 107.5 12.5)"><text x="0" y="18" font-family="Virgil, Segoe UI Emoji" font-size="20px" fill="#000000" text-anchor="start" style="white-space: pre;" direction="ltr">4. 1-консервативность</text></g><g transform="translate(246.33004719297674 1155.7636614332384) rotate(0 105.5 12.5)"><text x="0" y="18" font-family="Virgil, Segoe UI Emoji" font-size="20px" fill="#000000" text-anchor="start" style="white-space: pre;" direction="ltr">5. консервативность </text></g><g transform="translate(260.58269060801206 1181.4089456109032) rotate(0 206.5 12.5)"><text x="0" y="18" font-family="Virgil, Segoe UI Emoji" font-size="20px" fill="#5f3dc4" text-anchor="start" style="white-space: pre;" direction="ltr">да, т.к мы можем подобрать коэфицент a</text></g><g transform="translate(262.9675505878166 1116.4426264398205) rotate(0 281 12.5)"><text x="0" y="18" font-family="Virgil, Segoe UI Emoji" font-size="20px" fill="#5f3dc4" text-anchor="start" style="white-space: pre;" direction="ltr">нет, т.к. сумма всех меток не одинакова в люьой момент</text></g><g transform="translate(242.44005693388146 1210.3484635055909) rotate(0 46 12.5)"><text x="0" y="18" font-family="Virgil, Segoe UI Emoji" font-size="20px" fill="#000000" text-anchor="start" style="white-space: pre;" direction="ltr">6. живая</text></g><g transform="translate(255.62755693388146 1230.3640885055909) rotate(0 304.5 12.5)"><text x="0" y="18" font-family="Virgil, Segoe UI Emoji" font-size="20px" fill="#5f3dc4" text-anchor="start" style="white-space: pre;" direction="ltr">да, каждый переход, является потенциально срабатываемым</text></g><g transform="translate(840.2756220963449 92.95971734964391) rotate(0 13.5 12.5)"><text x="0" y="18" font-family="Virgil, Segoe UI Emoji" font-size="20px" fill="#000000" text-anchor="start" style="white-space: pre;" direction="ltr">t3</text></g><g transform="translate(842.5614375526279 184.90278173456667) rotate(0 14 12.5)"><text x="0" y="18" font-family="Virgil, Segoe UI Emoji" font-size="20px" fill="#000000" text-anchor="start" style="white-space: pre;" direction="ltr">t2</text></g><g transform="translate(892.9508713165014 119.03564696225297) rotate(0 91 25)"><text x="0" y="18" font-family="Virgil, Segoe UI Emoji" font-size="20px" fill="#000000" text-anchor="start" style="white-space: pre;" direction="ltr">p1 p2 p3 p4 p5 p6</text><text x="0" y="43" font-family="Virgil, Segoe UI Emoji" font-size="20px" fill="#000000" text-anchor="start" style="white-space: pre;" direction="ltr">0  0  0  1   1  2</text></g><g transform="translate(242.4750341768072 1260.494699885409) rotate(0 76.99999999999999 12.5)"><text x="0" y="18" font-family="Virgil, Segoe UI Emoji" font-size="20px" fill="#000000" text-anchor="start" style="white-space: pre;" direction="ltr">7. устойчивость</text></g><g transform="translate(254.42440311151418 1286.6749475705587) rotate(0 325 25)"><text x="0" y="18" font-family="Virgil, Segoe UI Emoji" font-size="20px" fill="#5f3dc4" text-anchor="start" style="white-space: pre;" direction="ltr">да, т.к. каждая вершина имеет только 1 переход -&gt; возбуждвется</text><text x="0" y="43" font-family="Virgil, Segoe UI Emoji" font-size="20px" fill="#5f3dc4" text-anchor="start" style="white-space: pre;" direction="ltr">всегда только 1 из переходов </text></g><g transform="translate(918.9894897299346 882.8268103464512) rotate(0 93.5 12.5)"><text x="0" y="18" font-family="Virgil, Segoe UI Emoji" font-size="20px" fill="#000000" text-anchor="start" style="white-space: pre;" direction="ltr">1. свободный выбор</text></g><g transform="translate(931.5545388317337 907.7523652617721) rotate(0 17.5 12.5)"><text x="0" y="18" font-family="Virgil, Segoe UI Emoji" font-size="20px" fill="#5f3dc4" text-anchor="start" style="white-space: pre;" direction="ltr">нет</text></g><g transform="translate(918.1686557177659 934.0332460033886) rotate(0 87.5 12.5)"><text x="0" y="18" font-family="Virgil, Segoe UI Emoji" font-size="20px" fill="#000000" text-anchor="start" style="white-space: pre;" direction="ltr">2. маркированная</text></g><g transform="translate(931.5938476895533 954.0266267703028) rotate(0 100.5 12.5)"><text x="0" y="18" font-family="Virgil, Segoe UI Emoji" font-size="20px" fill="#5f3dc4" text-anchor="start" style="white-space: pre;" direction="ltr">да, 1 вход - 1 выход</text></g><g transform="translate(916.5146865498722 986.456420762761) rotate(0 83.00000000000006 12.5)"><text x="0" y="18" font-family="Virgil, Segoe UI Emoji" font-size="20px" fill="#000000" text-anchor="start" style="white-space: pre;" direction="ltr">3. автоматность</text></g><g transform="translate(928.6605176648831 1005.8940238238563) rotate(0 278.00000000000006 12.5)"><text x="0" y="18" font-family="Virgil, Segoe UI Emoji" font-size="20px" fill="#5f3dc4" text-anchor="start" style="white-space: pre;" direction="ltr">нет, переход t4 имеет более одного входа и t1 выхода</text></g><g transform="translate(917.5319077345315 1028.8481689504306) rotate(0 99.50000000000006 12.5)"><text x="0" y="18" font-family="Virgil, Segoe UI Emoji" font-size="20px" fill="#000000" text-anchor="start" style="white-space: pre;" direction="ltr">4. бесконфдиктность</text></g><g transform="translate(928.1151420723667 1051.7785100157398) rotate(0 187.00000000000006 12.5)"><text x="0" y="18" font-family="Virgil, Segoe UI Emoji" font-size="20px" fill="#5f3dc4" text-anchor="start" style="white-space: pre;" direction="ltr">да, нет вершин с более чем 1 выходом</text></g></svg>