<svg version="1.1" xmlns="http://www.w3.org/2000/svg" viewBox="0 0 177.99531748294834 22.603082527816298" width="177.99531748294834" height="22.603082527816298">
  <!-- svg-source:excalidraw -->
  
  <defs>
    <style>
      @font-face {
        font-family: "Virgil";
        src: url("https://unpkg.com/@excalidraw/excalidraw@0.13.0-4d26993/dist/excalidraw-assets/Virgil.woff2");
      }
      @font-face {
        font-family: "Cascadia";
        src: url("https://unpkg.com/@excalidraw/excalidraw@0.13.0-4d26993/dist/excalidraw-assets/Cascadia.woff2");
      }
    </style>
  </defs>
  <g stroke-linecap="round"><g transform="translate(10.651946938782942 9.414893981358034) rotate(0 78.34571180269123 1.8866472825501148)"><path d="M-0.65 1.07 C25.46 1.56, 131.22 1.77, 157.34 2.16 M1.21 0.59 C27.13 1.27, 130.31 2.47, 156.53 3.19" stroke="#000000" stroke-width="1" fill="none"></path></g><g transform="translate(10.651946938782942 9.414893981358034) rotate(0 78.34571180269123 1.8866472825501148)"><path d="M129.93 13.34 C136.66 7.99, 148.83 5.46, 157.71 2.05 M127.48 12.95 C137.43 8.71, 147.59 6.1, 155.88 3.07" stroke="#000000" stroke-width="1" fill="none"></path></g><g transform="translate(10.651946938782942 9.414893981358034) rotate(0 78.34571180269123 1.8866472825501148)"><path d="M130.31 -7.18 C136.77 -5.26, 148.8 -0.52, 157.71 2.05 M127.87 -7.57 C137.8 -4.46, 147.83 0.28, 155.88 3.07" stroke="#000000" stroke-width="1" fill="none"></path></g></g></svg>