<svg version="1.1" xmlns="http://www.w3.org/2000/svg" viewBox="0 0 336.80560302734375 193.39776471622122" width="336.80560302734375" height="193.39776471622122">
  <!-- svg-source:excalidraw -->
  
  <defs>
    <style>
      @font-face {
        font-family: "Virgil";
        src: url("https://unpkg.com/@excalidraw/excalidraw@0.12.0-e9067de/dist/excalidraw-assets/Virgil.woff2");
      }
      @font-face {
        font-family: "Cascadia";
        src: url("https://unpkg.com/@excalidraw/excalidraw@0.12.0-e9067de/dist/excalidraw-assets/Cascadia.woff2");
      }
    </style>
  </defs>
  <g stroke-linecap="round" transform="translate(21.1583251953125 96.05895856387747) rotate(0 45.608001708984375 43.669403076171875)"><path d="M6.75 20.44 C6.75 20.44, 6.75 20.44, 6.75 20.44 M6.75 20.44 C6.75 20.44, 6.75 20.44, 6.75 20.44 M1.96 30.9 C13.68 21.79, 18.2 9.87, 24.25 5.99 M3.53 30.53 C8.23 23.61, 12.59 18.26, 23.73 6.36 M2.26 40.48 C8.49 34.28, 13.44 25.61, 29.99 6.64 M0.32 38.54 C6.93 31.25, 13.77 24.49, 28.2 6.46 M2.04 44.75 C9.97 33.77, 22.76 21.23, 36.87 6.48 M1.63 46.54 C9.28 34.86, 17.77 24.73, 35.3 5.35 M1.97 51.4 C12.83 37.21, 25.08 25.3, 43.61 5.06 M2.05 50.73 C11.71 39.33, 23.03 27.65, 42.05 5.47 M4.2 56.24 C17.7 37.95, 35.37 19.12, 48.16 5.88 M4.18 54.42 C13.21 44.14, 22.34 33.4, 47.59 4.88 M4.37 60.31 C23.06 38.4, 42.99 17.18, 55.78 2.11 M4.52 58.26 C20.24 42.15, 35.06 24.37, 55.06 2.11 M7.82 64.57 C19.93 45.19, 33.67 28.12, 59.94 2.95 M7.47 62.16 C25.24 42.16, 43.61 21.25, 58.35 3.74 M9.67 67.47 C23.78 46.27, 43.28 27.33, 62.92 4.94 M7.24 68.04 C25.43 46.59, 43.86 27.4, 62.48 6.9 M12.29 69.09 C25.03 53.88, 41.81 37.4, 67.44 7.89 M11.11 71.13 C26.94 51.91, 42.65 32.84, 67.06 6.39 M15.47 72.04 C34.75 49.22, 53.74 25.92, 71.42 10.04 M13.42 72.11 C28.89 55.61, 45.69 37.67, 68.83 8.96 M17.16 73.82 C37.93 52.29, 60.39 26.49, 74.7 10.58 M16.15 76.6 C38.9 50.32, 62.02 24.6, 74.24 9.15 M22.27 76.18 C40.7 54.89, 57.15 35.34, 75.91 11.64 M21.46 77.73 C39.79 54.18, 61.33 31.01, 78.12 12.33 M22.15 80.01 C41.98 60.52, 60.5 37.31, 81.92 14.34 M23.09 80.24 C43.57 57.57, 63.29 34.43, 80.9 16.04 M28.7 84.72 C38.36 67.65, 48.5 57.01, 83.21 17.18 M26.15 83.01 C47.88 58.43, 71.8 31.99, 81.87 19.5 M29.82 87.08 C42.34 69.42, 51.65 59.22, 84.78 23.68 M30.52 85.15 C40.79 73.85, 50.66 59.98, 85.8 22.47 M33.51 86.89 C50.44 69.9, 63.45 49.66, 85.52 24.73 M34.67 86.75 C50.51 68.9, 66.38 50.34, 86.23 24.81 M38.75 86.6 C47.9 75.78, 61.64 64.17, 87.75 31.28 M38.39 87.78 C54.59 68.2, 70.28 51.44, 88.75 30.26 M42.91 89.65 C55 77.46, 65.78 65.82, 89.91 31.1 M43.98 87.62 C59.56 68.04, 76.86 50.32, 91.53 32.53 M47.15 88.62 C66.52 69.81, 81 46.8, 90.82 39.53 M47.51 88.32 C56.79 77.26, 66.72 66.64, 91.38 39.12 M53.97 90.37 C64.68 75.28, 71.87 64.2, 91.64 46.27 M54.16 88.98 C66.13 73.35, 80.85 57.18, 91.54 45.36 M63.89 84.35 C74.27 70.09, 82.16 60, 89.45 52.52 M62.68 85.27 C73.16 72.17, 82.65 61.31, 91.07 50.71 M72.46 81.58 C77.73 72.53, 84.93 65.7, 92 58.13 M70.25 81.55 C76.52 74.65, 82.83 66.57, 91.37 57.1" stroke="#000" stroke-width="0.5" fill="none"></path><path d="M52 0.66 C60.03 1.15, 69.35 4.91, 75.58 9.96 C81.81 15.02, 87.1 23.5, 89.37 30.99 C91.63 38.48, 91.55 47.26, 89.18 54.91 C86.8 62.56, 81.35 71.47, 75.11 76.89 C68.87 82.31, 59.77 86.38, 51.72 87.44 C43.68 88.51, 34.23 86.66, 26.85 83.29 C19.47 79.92, 12.05 73.68, 7.44 67.24 C2.82 60.8, -0.72 52.42, -0.85 44.65 C-0.99 36.88, 1.99 27.32, 6.6 20.62 C11.21 13.91, 18.66 7.77, 26.82 4.43 C34.97 1.08, 50.1 0.78, 55.52 0.56 C60.93 0.33, 59.54 2.27, 59.31 3.08 M49.5 -1.17 C57.45 -1.32, 65.79 4.35, 72.38 9.53 C78.97 14.71, 86.25 22.88, 89.03 29.92 C91.81 36.96, 90.96 44.15, 89.05 51.75 C87.14 59.35, 83.14 69.76, 77.57 75.52 C71.99 81.27, 63.69 84.52, 55.62 86.26 C47.55 88.01, 37.1 88.51, 29.16 85.99 C21.22 83.48, 12.61 77.54, 7.96 71.17 C3.32 64.81, 1.79 56.13, 1.3 47.81 C0.82 39.5, 1.43 28.21, 5.06 21.27 C8.68 14.34, 15.93 9.69, 23.06 6.22 C30.18 2.75, 43.58 1.53, 47.83 0.46 C52.08 -0.61, 48.24 -0.71, 48.54 -0.23" stroke="#000000" stroke-width="1" fill="none"></path></g><g stroke-linecap="round"><g transform="translate(70.33013916015625 88.66992047793997) rotate(0 120.15719207648758 -36.09184819705365)" fill-rule="evenodd"><path d="M3.87 -60.23 C3.87 -60.23, 3.87 -60.23, 3.87 -60.23 M3.87 -60.23 C3.87 -60.23, 3.87 -60.23, 3.87 -60.23 M-1.94 -50.18 C2.89 -52.48, 7.91 -58.61, 13 -63.49 M-0.37 -49.95 C3.32 -53.38, 6.09 -56.5, 11.93 -62.54 M-0.31 -43.4 C10.29 -53.48, 20.35 -65.81, 21.99 -68.9 M0.54 -45.86 C8.72 -52.38, 15.15 -60.71, 23.27 -70.42 M-0.47 -36.94 C6.96 -46.39, 17.35 -56.22, 28.66 -70.61 M0.47 -38.72 C9.05 -49.1, 18.47 -59.31, 29.33 -72.57 M-0.42 -33.15 C7.01 -39.07, 15.05 -49.68, 38.25 -73.27 M1.71 -32.84 C8.86 -42.31, 16.49 -51.04, 36.94 -72.35 M-2.52 -23.58 C15.34 -42.44, 29.4 -60.25, 42.95 -71.84 M-1.33 -24.43 C7.46 -33.65, 16.22 -44.73, 41.25 -73.94 M-1.87 -20.01 C15.83 -33.59, 29.35 -52.32, 45.72 -74.63 M-1.17 -18.81 C17.48 -41.04, 35.6 -60.73, 46.78 -73.38 M-0.34 -13.02 C17.56 -31.21, 30.65 -48.05, 54.29 -74.9 M-0.08 -13.1 C17.71 -34.65, 36.69 -54.87, 52.48 -74.39 M0.56 -6.13 C14.84 -26.98, 33.77 -41.6, 57.64 -73.47 M0.26 -6.65 C20.34 -30.04, 40.93 -53.63, 59.44 -75.2 M1.61 -3.44 C17.81 -20.7, 33.36 -40.62, 65.89 -76.6 M1.79 -2.77 C16.34 -19.45, 33.83 -37.77, 63.96 -74.57 M3.02 2.97 C27.47 -28.16, 53.84 -58.17, 70.15 -73.91 M2.49 1.64 C29.11 -30.09, 55.26 -59.99, 70.63 -75.89 M7.65 3.96 C23 -17.71, 42.15 -37.51, 74.45 -76.19 M6.77 2.81 C30.43 -22.13, 52.07 -47.96, 75.37 -75.25 M11.68 1.47 C37.91 -26.76, 62.41 -52.68, 80.22 -78.06 M13.28 2.07 C37.29 -27.12, 63.43 -55.18, 81.14 -76.22 M18.36 3.86 C42.32 -25.62, 64.86 -49.43, 87.56 -76.85 M17.9 3.02 C41.3 -23.76, 63.55 -49.66, 88.43 -76.91 M22.53 3.27 C45.03 -21.18, 65.57 -47.95, 94.4 -78.18 M23.42 2.66 C48.17 -25.15, 71.69 -53.94, 93.54 -77.81 M28.56 4.02 C52.24 -26.18, 76.22 -54.28, 100.35 -77.92 M28.66 1.62 C45.67 -17.66, 63.15 -38.64, 97.68 -77.87 M32.23 2.99 C49.2 -17.91, 68.65 -34.79, 103.34 -76.23 M33.57 2.39 C61.74 -28.03, 87.89 -60.52, 104.74 -78.75 M40.55 3.24 C60.31 -22.47, 81.67 -44.45, 109.41 -77.72 M38.21 2.68 C62.78 -23.23, 84.28 -48.88, 108.32 -77.17 M45.67 2.34 C69.78 -29.76, 97.95 -58.77, 113.3 -78.1 M43.85 3.65 C59.74 -14.49, 73.4 -30.63, 113.46 -75.72 M50.77 4.85 C70.62 -19.5, 89.7 -41.96, 118.91 -74.74 M50.08 4.11 C73.83 -24.02, 96.59 -52.57, 118.34 -75.7 M53.9 3.82 C79.98 -25.89, 106.23 -56.71, 123.97 -76.88 M53.78 3.9 C70.17 -16.34, 87.86 -34.78, 124.07 -75.38 M61.88 1.27 C87.12 -27.14, 115.98 -60.64, 126.49 -74.42 M60.25 4.14 C83.07 -23.74, 108.13 -49.82, 128.41 -75.07 M64.17 4.51 C88.95 -26.63, 117.2 -56.05, 131.97 -75.1 M64.26 3.42 C82.35 -14.79, 99.68 -34.82, 134.1 -74.48 M69.38 3 C83.51 -14.31, 99.69 -26.3, 137.32 -74.36 M69.75 2.4 C92.45 -22.64, 117.18 -47.78, 137.99 -74.74 M75.9 4.53 C92.94 -16.35, 113.43 -38.47, 142.07 -72.46 M75.61 3.86 C95.97 -19.91, 116.55 -41.71, 143.43 -73.71 M80.33 4.05 C98.39 -14.61, 115.09 -37.23, 146.81 -71.38 M81.37 3.31 C106.65 -24.1, 130.52 -54.57, 147.95 -73.1 M87.4 4.08 C107.65 -19.83, 127.31 -42.84, 152.56 -71.37 M86.24 3.21 C107.95 -22.82, 132.35 -49.47, 151.72 -71.18 M91.9 3.05 C107.59 -13.08, 125 -33.7, 157.16 -70.19 M92.27 3.16 C110.37 -18.22, 130.77 -42.92, 157.21 -70.19 M94.48 4.93 C114.47 -15.15, 130.54 -35.36, 160.6 -69.9 M95.28 3.31 C114.9 -17.23, 133.79 -37.03, 159.67 -69.35 M103.52 3.64 C127.5 -23.04, 151.09 -51.98, 164.81 -66.75 M102.04 4.57 C114.36 -10.5, 126.78 -25.35, 164.11 -66.96 M105.11 3.39 C120.93 -12.07, 134.57 -29.82, 167.55 -67.33 M107.26 4.82 C125.47 -17.43, 142.19 -37.35, 168.41 -66.65 M110.78 4.32 C126.54 -13.64, 143.49 -30.37, 172.34 -64.16 M112.69 4.28 C131.59 -15.96, 150.51 -38.66, 172.38 -63.27 M119.49 2.85 C134.98 -16.67, 155.98 -37.48, 176.92 -62.36 M118.14 3.77 C134.16 -13.89, 150.01 -34.24, 175.46 -61.63 M123.45 4.11 C141.31 -19.28, 164.38 -40.97, 177.2 -61.48 M122.61 4.84 C141.06 -17.39, 160 -37.86, 179.82 -60.63 M128 3.5 C140.88 -12.49, 156.24 -28.35, 183.08 -57.41 M127.27 5.27 C140.72 -11.49, 154.73 -26.67, 183.41 -59.26 M133.49 3.12 C147.92 -15.1, 165.67 -35.05, 185.71 -55.46 M132.6 5.17 C150.26 -15.95, 168.67 -35.11, 186.34 -55.96 M137.18 4.1 C151.19 -10.82, 168.01 -26.93, 187.29 -54.54 M137.41 5.27 C155.02 -13.61, 169.56 -32.45, 187.95 -52.9 M145.07 4.27 C161.07 -15.77, 175.74 -34.15, 191.68 -51.51 M143.89 4.28 C153.84 -7.22, 166 -20.41, 192.54 -50.58 M149.79 6.48 C158.29 -5.69, 167.66 -17.52, 194.28 -48.79 M148.71 5.08 C164.36 -11.93, 178.1 -28.51, 194.46 -49.6 M152.51 7.03 C169.22 -11.6, 183.27 -31.56, 197.83 -44.75 M154.08 4.99 C168.48 -10.07, 181.61 -26, 199.13 -45.23 M158.77 5.27 C170.19 -5.98, 181.86 -21.13, 202.33 -45.36 M158.77 5.1 C173.74 -12.78, 189.96 -31.09, 202.1 -45.28 M164.35 3.95 C174.26 -6.04, 180.35 -15.77, 206.98 -39.75 M165.21 4.51 C177.52 -8.59, 188.78 -24.17, 204.19 -41.8 M169.22 5.66 C178.57 -4.83, 184.33 -14.35, 209.27 -37.9 M168.55 4.55 C181.96 -10.18, 195.16 -24.47, 207.79 -39.02 M173.31 6.38 C186.04 -6.74, 197.69 -21.19, 208.25 -35.73 M173.71 6.13 C186.46 -7.61, 198.5 -20.21, 209.28 -34.57 M178.46 3.91 C187.23 -4.1, 191.89 -8.67, 211.07 -31.5 M180.43 6.02 C191.43 -8.7, 202.86 -21.3, 212.8 -32.08 M186.28 6.22 C193.61 -4.62, 201.67 -12.96, 213.52 -28.39 M184.4 4.97 C194.25 -4.91, 204.72 -16.85, 213.94 -27.99 M191.31 3.59 C197.45 -2.9, 201.08 -9.86, 216.55 -25.18 M191.54 3.67 C200.22 -4.67, 207.54 -15.89, 217.49 -26.37 M197.66 2.96 C203.3 -1.44, 209.34 -12.55, 218.89 -22.33 M197.86 4.99 C201.56 -1.12, 207.58 -8.28, 219.17 -21.18 M201.46 2.59 C209.31 -2.54, 213.84 -8.62, 224.1 -20.15 M203.08 4.3 C210.52 -4.81, 217.82 -12.35, 221.98 -18.68 M206.78 2.64 C210.47 -2.52, 215.25 -7.44, 223.95 -14.87 M207.76 4.02 C210.85 -0.26, 216.11 -4.11, 224.67 -15.65 M212.8 3.6 C217.52 -2.37, 222.53 -5.11, 227.55 -14.56 M213.66 3.75 C217.32 -0.83, 220.08 -3.16, 228.1 -13.5 M217.85 4.72 C223.13 0.62, 226.34 -3.8, 231.16 -10.68 M218.82 2.79 C220.58 0.23, 224.41 -3.37, 230.32 -10.08 M224.49 4.42 C225.91 0.15, 229.97 -3.75, 233.18 -7.32 M224.42 3.56 C225.83 0.62, 229.3 -2.28, 234.01 -6.9 M228.51 3.59 C231.13 2.09, 232.27 1.07, 236.02 -4.52 M229.15 3.49 C231.21 1.33, 232.61 -0.54, 235.95 -4.59 M235.03 3.37 C235.91 1.34, 238.11 0.37, 237.99 -0.71 M235.01 2.75 C236.5 1.54, 237.33 0.43, 238.48 -0.66 M239.99 3.17 C240.59 2.68, 241.56 1.77, 242.34 1.01 M240.09 3.29 C240.61 2.86, 240.92 2.22, 242.16 1.23" stroke="#000" stroke-width="0.5" fill="none"></path><path d="M0.19 -0.13 C-0.02 -8.6, -5.58 -39.32, -0.35 -51.3 C4.89 -63.28, 8.59 -67.83, 31.6 -71.99 C54.6 -76.16, 110.42 -79.82, 137.67 -76.28 C164.93 -72.73, 181.59 -59.66, 195.13 -50.73 C208.66 -41.79, 212.2 -30.65, 218.89 -22.67 C225.57 -14.69, 234.62 -7.06, 235.24 -2.85 C235.87 1.36, 261.86 2.22, 222.63 2.61 C183.41 2.99, 37.13 -0.21, -0.12 -0.52 M-1.16 -1.25 C-1.66 -9.99, -6.94 -40.78, -1.51 -52.88 C3.91 -64.98, 8.11 -70.15, 31.41 -73.87 C54.72 -77.59, 111.22 -79.11, 138.32 -75.21 C165.43 -71.3, 180.38 -58.98, 194.05 -50.44 C207.72 -41.89, 213.41 -31.77, 220.36 -23.96 C227.31 -16.15, 235.53 -8.47, 235.76 -3.57 C236 1.32, 260.76 4.56, 221.77 5.41 C182.78 6.25, 38.86 2.28, 1.81 1.48" stroke="#000000" stroke-width="1" fill="none"></path></g></g><g stroke-linecap="round"><g transform="translate(69.03326416015625 90.80273297793997) rotate(0 122.49182204901706 -39.84044575240381)"><path d="M0.07 1.12 C2.86 -10.68, -9.67 -57.99, 17 -70.35 C43.67 -82.71, 121.88 -84.74, 160.1 -73.04 C198.32 -61.33, 231.96 -12.45, 246.33 -0.12 M-1.35 0.67 C1.76 -11.06, -7.7 -57.16, 19.08 -69.32 C45.87 -81.48, 121.49 -83.94, 159.36 -72.29 C197.23 -60.63, 231.49 -11.7, 246.31 0.6" stroke="#000000" stroke-width="1" fill="none"></path></g></g><g stroke-linecap="round"><g transform="translate(71.62701416015625 87.38085797793997) rotate(0 18.74504907137927 -35.401307565718895)"><path d="M-0.59 -0.18 C4.99 -3.91, 26.18 -11.01, 32.48 -22.76 C38.79 -34.5, 36.41 -62.73, 37.24 -70.63 M1.31 -1.32 C7.34 -4.9, 28.79 -10.47, 34.72 -21.78 C40.65 -33.08, 36.92 -60.73, 36.9 -69.14" stroke="#000000" stroke-width="1" fill="none"></path></g></g><g stroke-linecap="round" transform="translate(230.88961791992188 92.69482282168997) rotate(0 45.608001708984375 43.669403076171875)"><path d="M8.87 16.98 C8.87 16.98, 8.87 16.98, 8.87 16.98 M8.87 16.98 C8.87 16.98, 8.87 16.98, 8.87 16.98 M4.31 29 C10.13 22.8, 16.68 14.76, 19.97 7.3 M5.19 28.38 C7.92 24.41, 10.94 20.29, 20.89 10.02 M1.08 39.16 C9.81 31.39, 16.14 18.54, 30.53 3.28 M0.77 39.24 C11.37 26.39, 21.16 15.15, 30.88 4.02 M2.3 42.78 C15.64 27.97, 27.66 10.59, 38.28 3.14 M2.79 42.26 C15.98 27.21, 29.33 11.77, 37.97 1.39 M4.6 46.54 C13.91 35.78, 25.78 20.25, 42.76 0.07 M3.02 47.89 C13.76 33.63, 25.26 20.08, 43.23 2.41 M5.66 54.1 C17.86 37.77, 29.17 22.8, 49.65 3.17 M5.25 53.53 C15.54 38.53, 28.04 25.87, 49.51 1.63 M5.61 56.8 C25.66 36.89, 43.46 14.32, 53.28 0.64 M5.88 58.16 C18.85 43.69, 31.74 27.3, 55.13 0.79 M6.92 63.3 C22.81 42.27, 38.13 25.4, 60.54 2.33 M6.92 61.64 C20.44 45.04, 35.65 27.87, 58.99 1.3 M5.53 66.42 C23.44 50.51, 40.97 29.93, 60.6 2.65 M8.41 67.52 C24.98 46.51, 43.47 25.37, 63.49 4.84 M8.75 71.02 C29.43 50.39, 45.98 32.09, 64.31 4.42 M9.46 70.6 C30.95 46.27, 52.07 21.75, 67.04 5.11 M13.23 70.9 C27.02 54.76, 42.93 38.74, 70.61 6.03 M13.37 71.76 C25.25 60.26, 37.17 46.93, 69.77 8.76 M14.69 76.18 C28.75 62.05, 39.91 47.68, 74.48 11.53 M16.64 75.02 C37.31 50.02, 59.66 26.24, 72.61 9.31 M17.9 77.63 C39 54.85, 59.8 34.14, 78.77 12.78 M20.04 77.82 C42.25 52.52, 65.66 24.61, 76.3 11.13 M24.5 80.82 C44 54.42, 66.28 31.46, 81.46 12.32 M21.67 80.88 C34.51 66.05, 45.96 52.83, 79.83 14.05 M24.88 84.26 C40.78 66.12, 57.52 49.55, 80.79 15.98 M26.05 82.19 C39.69 68.02, 52.77 50.64, 82.81 17.89 M31.39 84 C44.28 70.95, 55.18 55.69, 82.53 19.78 M30.46 83.45 C48.63 63.75, 66.92 43.01, 83.87 21.06 M34.28 84.27 C51.11 66.14, 72.07 43.38, 85.16 26.52 M34.07 84.47 C47.1 69.8, 60.53 54.82, 87.06 25.06 M37.48 87.1 C48.22 73.15, 61.53 62.05, 87.78 28.44 M38.98 86.64 C54.01 67.9, 70.42 51.39, 88.93 28.89 M41.18 87.95 C54.62 72.7, 64.83 59.85, 91.24 31.33 M41.91 88.35 C61.4 67.83, 79.55 45.69, 90.89 32.99 M45.73 89.83 C56.56 78.81, 67.52 64.36, 92.82 38.66 M47.32 88.95 C56.87 77.53, 67.03 65.63, 92.98 37.2 M51.46 89.41 C66.74 76.33, 78.4 60.05, 92.64 42.69 M52.42 90.63 C67.11 71.91, 81.38 55.81, 91.6 43.66 M58.56 86.66 C69.52 74.72, 84.8 58.24, 92.23 51.62 M60.21 85.92 C67.49 77.92, 75.03 69.82, 91.15 49.77 M66.41 85.27 C74.9 74.82, 82.71 66.25, 89.79 56.94 M68.07 83.88 C74.67 74.02, 84.24 64.43, 88.55 59.38" stroke="#000" stroke-width="0.5" fill="none"></path><path d="M54.87 0.04 C62.72 0.88, 72.45 6.71, 78.48 12.56 C84.51 18.4, 89.33 27.44, 91.04 35.1 C92.75 42.77, 91.66 51.26, 88.73 58.57 C85.81 65.88, 80.01 74.04, 73.52 78.96 C67.02 83.88, 58.09 87.63, 49.75 88.09 C41.4 88.55, 30.96 85.63, 23.46 81.72 C15.95 77.81, 8.63 71.53, 4.71 64.61 C0.79 57.69, -0.76 48.13, -0.07 40.2 C0.62 32.27, 3.7 23.32, 8.82 17.04 C13.95 10.76, 21.95 5, 30.69 2.52 C39.44 0.04, 55.55 1.63, 61.28 2.16 C67.01 2.69, 65.41 4.81, 65.06 5.69 M50.33 -0.17 C58.51 0.16, 69.9 3.77, 76.51 9.12 C83.11 14.47, 87.77 24.11, 89.96 31.92 C92.16 39.72, 91.78 48.41, 89.66 55.94 C87.54 63.46, 83.62 71.72, 77.24 77.07 C70.86 82.42, 59.64 86.76, 51.38 88.04 C43.11 89.32, 35.12 87.99, 27.64 84.74 C20.15 81.48, 10.92 75.29, 6.45 68.49 C1.98 61.7, 0.62 51.75, 0.8 43.96 C0.98 36.17, 3.52 28.2, 7.54 21.75 C11.56 15.3, 17.75 8.63, 24.92 5.24 C32.09 1.86, 46.2 1.91, 50.56 1.45 C54.92 0.98, 51.05 1.75, 51.09 2.44" stroke="#000000" stroke-width="1" fill="none"></path></g><g stroke-linecap="round" transform="translate(10 94.85742047793997) rotate(0 6.989654541015625 12.624908447265625)"><path d="M0 0 C0 0, 0 0, 0 0 M0 0 C0 0, 0 0, 0 0 M0.29 6.94 C1.32 4.68, 2.13 2.97, 5.29 1.06 M0.13 6.71 C1.03 4.49, 2.78 3.17, 5.23 0.44 M0.36 11.38 C4.77 8.61, 7.33 4, 9.1 0.25 M0.57 12.46 C3.05 9.57, 5.77 5.19, 10.58 0.38 M0.41 19.22 C4.99 11.52, 8.85 7.84, 16.63 1.27 M0.41 17.56 C3.71 12.98, 8.3 8.02, 15.09 0.23 M-1.64 23.09 C4.96 20.9, 10.81 13.76, 13.42 5.36 M1.24 24.19 C4.88 17.96, 10.26 11.89, 16.3 7.54 M1.01 28.39 C8.2 23.14, 11.74 19.76, 13.28 11.73 M1.68 28 C6.86 22.72, 11.7 16.95, 15.87 12.38 M7.48 26.85 C9.05 25.3, 11.52 23.72, 15.23 18.57 M7.56 27.32 C9.01 26.49, 10.72 24.74, 14.77 20.07" stroke="#fab005" stroke-width="0.5" fill="none"></path><path d="M0.99 1.16 C3.28 -0.67, 8.93 -0.03, 14.2 1.25 M0.05 -0.34 C4.17 -0.45, 8.1 -0.21, 14.42 -0.41 M13.62 1.09 C14.47 9.03, 15.76 15.15, 12.88 23.5 M14.5 0.47 C14.01 6.16, 13.41 11.78, 13.79 26.23 M14.4 25.47 C11.27 26.41, 6.39 23.93, -0.54 25.19 M14.19 25.53 C9.81 24.69, 4.72 25.17, -0.3 25.71 M-0.54 25.81 C-0.34 16.96, -1.58 5.2, 0.67 0.93 M-0.05 25.3 C0.19 15.92, 0.48 6.03, 0.36 -0.82" stroke="#000000" stroke-width="1" fill="none"></path></g><g stroke-linecap="round"><g transform="translate(70.27947998046875 89.07903913028372) rotate(0 19.67007709815124 -35.67272071754968)" fill-rule="evenodd"><path d="M8.15 -59.16 C8.15 -59.16, 8.15 -59.16, 8.15 -59.16 M8.15 -59.16 C8.15 -59.16, 8.15 -59.16, 8.15 -59.16 M3.38 -47.21 C7.34 -51.73, 12 -56.86, 21.29 -64.92 M4.07 -47.61 C7.87 -52.87, 11.32 -54.87, 19.91 -67.34 M0.04 -36.6 C10.12 -47.73, 19.24 -56.16, 27.71 -68.66 M-1.09 -36.75 C6.56 -45.04, 12.22 -50.63, 28.63 -69.49 M0.01 -33.06 C8.76 -42.56, 15.16 -49.1, 33.34 -68.72 M0.38 -31.13 C7.06 -40.85, 14.5 -48.65, 33.31 -69.66 M0.21 -25.91 C12.26 -39.85, 24.72 -55.85, 39.52 -68.94 M-0.16 -25.89 C11.37 -37.7, 20.64 -50.23, 38.92 -69.01 M2.83 -18.72 C13.02 -35.58, 28.52 -52.2, 37.88 -64.39 M0.68 -20.29 C12.79 -34.37, 26.74 -48.64, 40.31 -65.52 M1.87 -13.15 C11.89 -27.42, 25.93 -41.58, 42.62 -62.68 M0.19 -13.69 C13.44 -28.54, 25.83 -43.38, 41.52 -61.42 M1.7 -9.78 C15.03 -25.35, 31.01 -39.37, 41.33 -53.66 M1.21 -8.65 C15.12 -22.87, 28.1 -39.67, 41.95 -55.12 M1 -1.54 C9.36 -13.55, 18.1 -22.85, 42.66 -49.44 M1.24 -2.46 C15.22 -18.68, 28.62 -33.75, 41.07 -47.37 M3.88 0.7 C12.41 -8.75, 24.56 -23.37, 40.96 -41.93 M2.82 3.01 C16.17 -12.48, 27.19 -27.16, 40.35 -41.04 M14.34 -5.31 C19.28 -8.82, 24.72 -19.21, 40.15 -32.74 M13.16 -4.26 C21.52 -14.76, 31.5 -23.47, 38.27 -33.18" stroke="#228be6" stroke-width="0.5" fill="none"></path><path d="M0.61 0.92 C6.3 -2.8, 27.82 -9.25, 33.81 -21.38 C39.81 -33.5, 41.98 -66.93, 36.59 -71.83 C31.19 -76.74, 7.7 -62.9, 1.45 -50.81 C-4.8 -38.72, -0.6 -7.59, -0.93 0.73 M-0.52 0.35 C5.09 -3.75, 26.67 -10.96, 33.27 -22.87 C39.86 -34.78, 44.26 -66.62, 39.05 -71.1 C33.85 -75.58, 8.41 -61.86, 2.03 -49.76 C-4.35 -37.66, 1.01 -7, 0.77 1.5" stroke="#000000" stroke-width="1" fill="none"></path></g></g><g stroke-linecap="round" transform="translate(15.04888916015625 91.63867047793997) rotate(0 155.87835693359375 22.875091552734375)"><path d="M0 0 C0 0, 0 0, 0 0 M0 0 C0 0, 0 0, 0 0 M-0.43 5.62 C0.9 3.97, 3.28 2.62, 5.49 0.51 M-0.63 6.6 C1.3 5.18, 2.22 3.04, 5.28 0.71 M0.12 11.89 C1.58 8.88, 5.94 4.94, 10.52 0.85 M0.33 12.27 C2.34 8.85, 5.59 5.96, 10.72 0.47 M1.8 19.42 C5.4 11.9, 9.78 6.05, 14.3 1.72 M-0.74 17.73 C4.79 12.14, 9.36 7.5, 15.41 1.32 M0.18 24.45 C5.7 19.27, 8.61 14.4, 21.09 -0.45 M0.32 23.42 C8.73 14.89, 14.84 7.28, 21.8 -0.65 M-1.19 28.54 C7.15 18.9, 20 11.29, 24.9 -1.12 M0.36 30.75 C7.41 20.46, 16.27 12.02, 25.49 1.17 M1.48 38.45 C9.04 23.21, 20.87 13.8, 31.55 -0.47 M-0.2 36.83 C7.59 28.58, 15.06 19.9, 31.93 -0.32 M2.12 42.51 C13.65 26.98, 29.68 6.57, 37.21 1.06 M-0.23 42.71 C10.93 28.77, 22.65 17.55, 36.18 0.2 M0.03 45.45 C9.24 36.82, 17.84 28.23, 41.59 -1.23 M0.53 48.07 C10.31 37.08, 18.42 27.2, 43.3 0.31 M8.3 45.3 C14.9 37.67, 21.72 26.98, 46.53 -0.07 M7.1 47.89 C17.05 36.76, 25.95 26.42, 48.1 -0.1 M12.61 46.55 C21.65 38.13, 31.74 25.84, 53.13 -0.17 M11.23 47.46 C21.95 36.57, 31.56 23.8, 53.5 -0.97 M18.86 48.24 C30.07 28.86, 47.53 10.99, 56.38 1.97 M18.18 46.24 C31.6 30.71, 44.64 14.24, 58.29 -0.11 M23.8 48.56 C34.34 34.84, 45.77 19.95, 62.27 -1.89 M22.62 48.3 C33.72 35.15, 43.82 23.47, 63.51 0.73 M28.22 45 C39.27 33.27, 51.6 18.66, 70.44 0.46 M28.94 46.3 C38.03 34.85, 47.87 23.7, 68.19 -0.16 M31.54 46.5 C46.95 28.6, 63.61 12.48, 75.29 -2.21 M33.03 47.4 C42.88 36.97, 49.89 26.95, 73.73 -0.59 M36.93 45.52 C50.38 31.84, 64.78 18.77, 80.6 -0.48 M38.65 47.19 C46.82 36.37, 56.53 27.64, 79.66 -0.46 M41.96 46.23 C57.12 31.69, 70.21 18.32, 84.67 -0.11 M43.18 47.66 C56.01 34.05, 67.44 19.92, 85.97 0.14 M47.7 48.57 C61.74 31.74, 71.78 21.14, 90.93 2.06 M49.98 47.11 C58.86 36.07, 69.04 25.09, 90.93 0.88 M53.38 48.42 C68.41 30.47, 84.76 10.78, 97.08 -1.77 M54.19 48.1 C64.37 36.11, 73.67 25.31, 95.42 -0.9 M61.46 45.71 C77.62 30.38, 91.02 8.55, 101.69 1.8 M59.03 47.36 C76.62 28.92, 90.89 9.14, 100.68 -0.19 M64.3 48.55 C73.84 34.52, 82.7 23.66, 105.36 -0.56 M65.61 47.8 C74.76 38.02, 83.26 26.76, 106.7 -0.44 M69.29 45.33 C78.74 35.15, 88.64 25.97, 109.32 -0.72 M71.27 46.35 C82.73 32.08, 96.74 17.06, 111.98 0.42 M77.43 48.9 C85.39 34.3, 94.84 22.7, 115.9 -0.27 M75.37 47.97 C86.6 34.12, 98.41 21.62, 117.18 0.64 M80.5 48.62 C90.04 36.42, 103.16 23.98, 122.45 1.86 M81.61 47.55 C95 30.8, 110.31 13.94, 122.28 0.86 M87.65 46.57 C96.1 37.2, 104.34 27.24, 127.23 1.84 M85.83 47.88 C100.97 30.14, 116.9 12.67, 127.6 0.28 M90.55 45.6 C103.97 33.69, 115.88 18.49, 133.9 -0.29 M92.34 47.54 C102.55 32.93, 113.68 19.5, 133.49 -0.63 M98.02 45.49 C112.2 30.34, 127.23 13.49, 138.11 -0.4 M97.73 46.91 C109.31 30.98, 123.6 16.28, 138.13 -0.21 M101.11 47.08 C115.71 30.09, 130.48 17.13, 144.68 1.79 M103.17 46.01 C113.08 34.29, 125.05 21.93, 143.87 0.32 M107.79 48.38 C118.96 33.82, 129.84 19.29, 150.15 -1.11 M108.23 46.53 C122.69 29.76, 136.9 12.69, 149.01 0.82 M111.37 45.45 C122.72 34.43, 136.72 21.1, 151.98 -0.1 M112.56 46.47 C127.56 30.28, 143.51 11.96, 154.12 0.14 M116.42 48.77 C133.41 29.72, 150.47 11.85, 159.12 -1.6 M118.92 46.32 C132 31.25, 144.04 17.1, 157.88 0.09 M124.69 47.65 C135.95 30.36, 153.21 13.74, 165.18 0.64 M122.34 47.29 C136.48 32.57, 150.03 16.03, 165.34 -0.64 M127.54 47.03 C142.27 30.83, 156.22 13.88, 171.01 1.66 M129.75 47.93 C137.27 36.36, 144.95 28.02, 169.8 -0.55 M132.63 47.7 C148.26 30.45, 168.19 9.67, 173.86 1.43 M133.78 48.16 C142.93 35.8, 150.54 27.29, 175.04 0.61 M140.97 46.32 C148.03 39.42, 153.85 27.69, 181.98 0.98 M139.11 47.12 C151.77 34, 162.34 19.21, 179.22 -0.19 M145.6 47.66 C157.78 33.42, 170.73 17.94, 183.77 -1.51 M144.22 47.15 C152.15 37.77, 162.47 28, 185.12 0.62 M148.7 48.61 C162.34 30.51, 175.12 18.37, 190.38 1.48 M149.78 47.72 C159.52 37.39, 168.59 27.34, 190.01 -0.8 M156.21 46.41 C168.09 28.94, 183.48 15.62, 196.85 -1.13 M154.39 47.39 C171.89 28.98, 186.97 8.45, 195.91 0.2 M158.94 46.7 C167.82 35.95, 177.81 26.06, 200.74 1.13 M160.95 47.69 C171.93 33.51, 181.3 21.34, 201.44 0.73 M167.24 47.67 C178.61 30.66, 195.86 12.34, 207.24 0.41 M166.44 47.12 C181.78 28.15, 195.82 11.47, 206.12 0.26 M172.08 48.18 C186.77 29.06, 199.65 14.36, 211.8 -1.32 M172.23 47.05 C184.22 32.26, 196.98 18.31, 212.18 0.61 M175.68 47.92 C188.02 34.34, 200.46 18.41, 217.26 -0.21 M175.91 47.68 C186.75 35.46, 196.17 24.15, 216.88 -0.19 M180.67 47.48 C197.4 32, 209.3 13.92, 224.46 1.69 M181.61 45.94 C190.85 36.95, 198.76 27.37, 222.32 0.13 M188.67 48.5 C193.75 37.54, 204.34 26.02, 229.41 0.47 M187.78 47.49 C195.41 36.67, 206.34 24.94, 227.73 -0.06 M193.47 45.81 C205.33 33.48, 218.86 18.63, 233.83 -1.44 M193.51 46.58 C205.43 32.79, 216.58 19.35, 233.34 -0.31 M195.58 47.54 C212.99 27.42, 229.98 11.79, 237.73 1.51 M198.39 48.06 C206.41 36.87, 217.53 24.64, 237.96 0.59 M203.43 47.23 C218.51 30.44, 230.3 15.41, 245.2 -1.53 M202.75 47.28 C212.43 35.32, 222.19 24.06, 244.14 0.78 M207.95 47.98 C222.54 29.36, 238.86 11.78, 250.41 -1.5 M207.53 48.02 C220.62 33.09, 233.09 17.26, 249.23 -0.45 M215.69 46.58 C224.01 33.43, 236.18 22.91, 254.03 -0.55 M214.55 46.45 C228.66 29.38, 245.5 11.08, 255.03 -0.02 M219.48 45.59 C233.07 30.97, 242.07 16.7, 257.87 0.1 M218.36 47.07 C235.8 28.77, 252.17 9.01, 259.63 0.94 M223.55 45.52 C233.37 36.88, 241.4 25.73, 266 0.3 M224.53 46.6 C233.51 35.06, 243.82 25.27, 265.7 -1.04 M230.11 48.93 C237.05 39.11, 244.12 29.83, 271.37 1.05 M229.47 48 C242.66 31.46, 258.32 15.26, 270.32 0.24 M235.88 49.3 C245.88 32.8, 262.38 18.59, 276.95 0.67 M234.08 47.08 C248.81 32.43, 261.16 16.95, 275.28 0.5 M241.93 47.39 C254.75 30.73, 265.14 19.25, 282.35 -1.11 M240.85 46.72 C252.47 31.5, 265.21 18.69, 280.88 1.01 M243.67 47.68 C253.09 39.43, 262.41 26.72, 284.93 0.99 M244.95 47.07 C260.2 28.39, 277.63 9.98, 286.28 0.46 M251.23 47.17 C265.03 32.09, 275.05 14.55, 290.44 1.96 M249.89 46.21 C265.11 30.32, 280.48 12.32, 291.27 0.92 M256.16 47.54 C267.14 36.69, 278.43 23.38, 298.15 -1.47 M255.33 48.11 C271.03 29.57, 287.02 10.56, 296.62 -0.21 M260.49 47.26 C276.55 28.61, 293.54 13.85, 303.46 1.43 M261.39 46.54 C272.78 34.22, 285.22 18.63, 301.88 -0.28 M267.4 45.77 C276.26 35.1, 286.02 25.95, 307.03 -0.63 M266.48 47.07 C277.33 34.69, 289.06 21.72, 307.65 0.54 M270.36 47.51 C278.82 36.05, 288.5 28.42, 313.41 -0.72 M271.57 46.91 C287.65 28.49, 304.23 10.26, 313.48 -0.76 M275.67 46.12 C287.43 34.54, 301.8 19.81, 314.27 5.17 M276.05 46.94 C283.3 37.79, 292.03 30.31, 312.2 6.65 M283.7 48.53 C288.46 40.04, 296.13 30.77, 313.35 13.13 M282.03 47.57 C288.57 39.01, 295.3 30.75, 312.13 12.28 M287.4 47.11 C292.29 39.96, 298.21 35.72, 311.96 18.12 M288.13 46.77 C298.35 35.51, 307.36 24, 311.72 18.85 M293.54 47.78 C298.16 39.62, 307.57 30.78, 311.45 25 M293.8 45.89 C299.07 39.36, 305.72 32.54, 311.22 25.26 M297.23 46.11 C300.04 42.17, 306.66 40.78, 313.68 29.44 M299.17 47.72 C300.38 43.65, 304.21 39.35, 312.35 31.19 M303.36 47.26 C305.38 44.75, 308.67 42.49, 311.89 37.68 M303.48 46.49 C306.77 43.35, 309.27 39.37, 312.19 37.05 M308.6 47.19 C309.58 46.67, 309.92 45.09, 312.55 43.85 M308.62 47.14 C309.51 46.47, 310.24 45.41, 312.17 43.25" stroke="#228be6" stroke-width="0.5" fill="none"></path><path d="M0.41 -1.26 C70.72 -1.45, 141.7 -1.12, 310.79 0.83 M-0.7 0.37 C119.54 -0.08, 239.09 -0.53, 312.15 -0.62 M310.02 -0.02 C313.06 12.09, 310.57 20.89, 310.3 47.28 M312.67 0.08 C311.75 13.83, 312.01 29.03, 312.62 46.52 M312.63 45.98 C232.51 47.56, 151.1 47.77, -0.34 46.89 M312.33 45.16 C193.31 44.36, 75.35 43.98, 0.55 46.08 M-1.83 45.17 C-1.18 27.6, 2.17 8.1, -0.52 1.5 M-0.79 46.04 C0.48 27.15, -0.72 10.52, 0.22 -0.79" stroke="#000000" stroke-width="1" fill="none"></path></g><g stroke-linecap="round"><g transform="translate(231.93170166015625 22.412107977939968) rotate(0 32.153971203428 32.418556125291445)" fill-rule="evenodd"><path d="M0 0 C0 0, 0 0, 0 0 M0 0 C0 0, 0 0, 0 0 M-0.13 6.55 C0.35 5.33, 1.17 4.19, 3.17 2.44 M-0.03 6.12 C1.19 4.88, 3.05 2.59, 3.72 1.99 M-1.54 13.81 C0.29 10.85, 2.56 9.73, 7.27 5.04 M-0.85 12.4 C1.41 10.96, 2.91 9.37, 6.57 4.12 M-1.38 19.75 C2.85 14.34, 4.84 12.75, 12.03 5.7 M-1.56 19.69 C2.67 14.37, 6.53 10.25, 10.19 6.63 M-0.23 25.99 C1.99 20.26, 6.35 17.41, 11.59 9.95 M-1.57 26.16 C5.62 20.08, 9.34 13.14, 13.19 7.99 M-0.38 32.93 C3.58 27.82, 9.21 20.11, 16.87 12.27 M-1.96 33.5 C4.01 24.29, 11.16 17.03, 17.78 11.18 M-3.81 40.08 C7.51 31.62, 13.31 22.73, 22.26 13.45 M-1.28 39.59 C4.43 30.34, 11.42 22.48, 20.6 13.17 M-0.63 45.03 C6.85 36.44, 14.75 24.28, 22.54 13.4 M-1.99 46.27 C5.76 34.85, 15.16 24.62, 23.78 16.1 M-1.33 49.19 C8.86 39.99, 16.69 29.65, 26.94 18.98 M-1.64 50.78 C6.66 39.7, 15.57 29.21, 27.94 16.95 M-1.51 57.13 C5.29 46.14, 13.71 37.01, 30.46 19.35 M-0.38 55.03 C8.84 43.07, 19.03 32.4, 30.66 20.82 M3.22 56.71 C7.58 53.04, 14.09 42.53, 34.33 22.84 M1.36 59.47 C9.48 51.23, 16.46 41.3, 34.14 21.52 M3.92 63.25 C11.24 53.38, 17.95 43.02, 35.25 26.08 M4.67 61.1 C13.48 51.71, 24.35 39.52, 35.64 24.59 M7.38 63.59 C16.63 54.76, 21.53 45.69, 37.29 28.13 M8.48 63.3 C19.32 50.7, 31.78 37.43, 38.54 29.17 M11.45 63.5 C25.34 53.32, 36.71 36.79, 42.38 29.58 M12.04 65.13 C20.49 55.22, 28.66 45.38, 42.03 30.99 M15.53 66.82 C24.35 56.6, 32.87 46.22, 45.57 35.99 M16.57 66.21 C23.65 59.44, 29.88 52.42, 43.56 33.52 M23.1 67.06 C32 55.14, 42.83 41.11, 48.17 37.94 M23.05 66.15 C30.4 56.96, 38.97 46.48, 47.19 37.94 M26.95 68.01 C31.72 57.88, 39.16 54.12, 48.41 39.18 M26.57 67.01 C33.53 58.27, 39.59 50.43, 49.37 41.05 M32.39 66.65 C36.21 59.88, 40.62 53.85, 53.83 45.53 M32.76 66 C36.98 61.99, 39.98 57.19, 52.59 43.97 M37.75 66.52 C42.04 59.56, 45.27 56.71, 55.26 45.21 M37.49 66.61 C41.89 61.42, 46.53 56.19, 54.52 46.31 M43.68 66.83 C46 63.76, 52.5 56.16, 56.69 49.29 M43.29 65.63 C46.35 62.5, 48.94 59.46, 57.05 50.42 M48.86 68.01 C52.27 63.85, 55.32 57.77, 59.79 52.46 M48.37 66.52 C51.6 62.7, 56.38 57.82, 60 52 M51.88 65.69 C57.79 63.38, 60.35 57.28, 62.44 56.89 M53.09 66.54 C57.34 63.25, 60.3 58.68, 62.81 55.97 M57.05 69.06 C59.42 64.84, 61.51 63.66, 65.52 59.77 M57.15 68 C59.63 66.09, 61.82 63.66, 64.11 60.16" stroke="#228be6" stroke-width="0.5" fill="none"></path><path d="M-0.45 0.12 C-0.41 9.77, -5.43 45.99, 0.65 56.88 C6.73 67.77, 25.12 64.66, 36.03 65.46 C46.95 66.26, 66.17 68.56, 66.15 61.69 C66.12 54.82, 46.9 34.6, 35.87 24.25 C24.84 13.9, 5.93 3.76, -0.02 -0.4 M1.51 -0.86 C1.4 9.04, -5.67 47.5, -0.09 58.21 C5.49 68.92, 23.88 62.72, 35 63.39 C46.13 64.07, 66.76 68.77, 66.67 62.27 C66.57 55.78, 45.33 35.1, 34.45 24.45 C23.56 13.8, 6.97 2.22, 1.38 -1.64" stroke="#000000" stroke-width="1" fill="none"></path></g></g><g stroke-linecap="round"><g transform="translate(117.29269848955579 20.466795477939968) rotate(0 51.92599945966907 32.32168788874753)" fill-rule="evenodd"><path d="M0 0 C0 0, 0 0, 0 0 M0 0 C0 0, 0 0, 0 0 M-2.27 8.25 C0.66 6.06, 2.47 3.64, 6.64 0.49 M-1.09 8.33 C1.08 4.98, 2.96 2.54, 5.6 -0.04 M-3.72 15.44 C-1.84 12.46, 2.78 9.2, 10.48 -0.46 M-3.61 15.89 C0.62 10.81, 5.19 7.82, 9.85 0.8 M-4.15 26.39 C3.59 17.79, 7.55 6.22, 18.16 -0.36 M-5.45 24.87 C2.45 14.75, 9.99 7.5, 16.48 -1.29 M-7.28 33.26 C3 19.81, 11.38 12.46, 20.96 -0.1 M-7.51 31.51 C2.6 22.08, 10.79 10.44, 21.9 0.07 M-8.26 39.46 C4.19 23.43, 18.62 9.67, 25.77 -0.41 M-8.3 39 C2.58 25.96, 15.21 14.84, 26.04 0.31 M-6.18 45.54 C0.1 35.58, 11.35 25.1, 32 0.48 M-7.68 44.61 C5.03 30.38, 19.47 13.67, 32.26 -1.02 M-7.21 50.56 C5.48 36.22, 18.4 20.11, 37.77 -0.76 M-6.22 50.28 C7.89 33.68, 19.86 18.87, 37.33 -0.63 M-4.48 54.22 C10.47 37.08, 26.1 19.33, 44.67 0.29 M-5.25 55.91 C3.7 43.63, 13.77 31.93, 43.97 -1.45 M-3.42 58.96 C10.2 44.43, 20.07 29.7, 50.53 -2.8 M-2.33 58.64 C7.69 45.99, 18.08 35.51, 49.53 -2.09 M1.89 61.88 C20.57 37.55, 41.44 14.11, 54.23 -2.48 M0.08 60.01 C18.13 40.11, 36.96 19.11, 54.5 -0.77 M4.71 63.83 C19.01 48.14, 31.02 31, 61.84 -0.76 M4.58 62.15 C25.05 38.34, 46.72 11.88, 60.55 -1.71 M6.5 62.81 C20.92 51.14, 34 34.4, 66.72 -3.69 M7.37 64.44 C24.75 45.49, 41.04 28.84, 64.41 -2.37 M14.34 66.57 C31.48 39.27, 56.19 13.65, 69.66 -3.66 M11.56 65.27 C28.71 47.94, 44.03 28.78, 69.78 -2.65 M16.42 67.01 C28.82 50.91, 43.45 35.31, 77 -3.04 M16.46 65.64 C36.74 42.43, 58.31 20.37, 77.34 -3.27 M19.46 68.77 C34.73 51.54, 46.61 38.1, 80.11 0.18 M20.77 66.91 C37.25 49.54, 52.59 31.44, 79.99 -2.23 M27.51 68.39 C41.06 52.35, 54.59 32.97, 85.44 -0.24 M25.26 67.19 C47.96 43.88, 67.8 19.27, 84.74 -0.28 M30.79 67.67 C45.76 51.17, 63.89 33.55, 90.75 -0.15 M31.36 67.84 C49.06 48.86, 65.68 29.97, 90.73 -1.07 M35.09 66.29 C50.45 51.82, 68.98 30.62, 94.5 -0.88 M36.44 67.33 C52.71 48.34, 71.4 28.85, 96.43 0.14 M43.27 69.97 C63.61 43.8, 79.79 21.64, 100.66 0.13 M41.03 68.51 C54.17 52.38, 68.19 38.9, 100.3 1.09 M46.67 69.28 C68.02 42.72, 86.08 20.03, 102.18 3.7 M46.12 68.71 C62.12 50.59, 76.49 32.83, 104.03 2 M52.6 66.06 C67.38 49.34, 87.69 28.76, 107.72 4.02 M52.46 67.27 C65.75 52.78, 80.22 36.81, 107.12 3.93 M55.84 68.3 C75.96 47.75, 93.92 27.35, 111.24 5.82 M57.81 67.64 C76.34 47.48, 94.55 24.56, 110.23 7.14 M60.68 69.51 C74.77 51.12, 90.37 36.01, 110.66 10.94 M62.85 67.89 C82 45.96, 101.6 24.44, 111.72 10.82 M68.41 67.54 C83.91 50.86, 95.47 33.88, 112.01 15.99 M66.48 68.82 C84.05 50.32, 99.53 32.14, 113.55 15.91 M72.81 67.06 C85.34 52.78, 98.07 39.25, 114.3 22.74 M73.08 69.5 C82.98 57.74, 92.6 44.3, 112.02 22.73 M80.9 68.83 C89.47 57.51, 97.96 46.92, 109.58 30.69 M79.13 67.84 C91.13 54.64, 101.22 42.6, 109.57 32.73 M86.47 66.42 C93.72 59.89, 101.09 48.64, 110.28 35.45 M84.49 66.42 C94.87 56.68, 104.15 45.17, 112.01 36.05 M91.43 66.23 C100.21 58.09, 108.04 48.21, 112.31 41.96 M89.61 65.76 C96.37 59.74, 105.13 50.57, 111.39 41.89 M97.99 65.71 C101.3 59.14, 108.7 53.71, 114.28 49.26 M97.53 65.65 C100.24 60.83, 103.65 58.48, 113.04 46.54 M101.73 62.94 C104.52 62.34, 109.09 57.51, 114.86 51.21 M102.54 63.82 C105.93 61.44, 107.81 59.68, 114.76 51.22" stroke="#228be6" stroke-width="0.5" fill="none"></path><path d="M-1.14 -0.85 C-1.15 9.16, -18.23 50.03, -1.14 60.88 C15.94 71.72, 82.95 69.13, 101.37 64.21 C119.78 59.28, 109.52 42.28, 109.34 31.35 C109.16 20.41, 118.63 3.72, 100.29 -1.41 C81.94 -6.54, 15.97 0.43, -0.74 0.59 M0.47 1.31 C0.39 10.9, -18.76 48.9, -2.1 59.05 C14.57 69.2, 81.88 66.67, 100.47 62.23 C119.06 57.8, 109.17 43.07, 109.44 32.43 C109.72 21.78, 120.32 3.79, 102.12 -1.64 C83.93 -7.07, 17.19 -0.68, 0.28 -0.14" stroke="#000000" stroke-width="1" fill="none"></path></g></g></svg>