<svg version="1.1" xmlns="http://www.w3.org/2000/svg" viewBox="0 0 1707.6240621521538 897.1701692286" width="3415.2481243043076" height="1794.3403384572" filter="invert(93%) hue-rotate(180deg)">
  <!-- svg-source:excalidraw -->
  
  <defs>
    <style>
      @font-face {
        font-family: "Virgil";
        src: url("https://unpkg.com/@excalidraw/excalidraw@0.12.0-e9067de/dist/excalidraw-assets/Virgil.woff2");
      }
      @font-face {
        font-family: "Cascadia";
        src: url("https://unpkg.com/@excalidraw/excalidraw@0.12.0-e9067de/dist/excalidraw-assets/Cascadia.woff2");
      }
    </style>
  </defs>
  <g stroke-linecap="round" transform="translate(11.873511959332973 10.617119623493068) rotate(0 536.9617919921875 434.92746584860424)"><path d="M0.18 0.53 C339.49 -0.02, 679.71 -0.09, 1073.34 -0.69 M0.01 -0.11 C322.34 2.73, 644.08 3.03, 1073.78 -0.28 M1073.68 -0.46 C1074.23 321.96, 1074.56 645.02, 1073.7 869.91 M1074.24 -0.18 C1073.45 254.56, 1073.71 509.64, 1074.03 869.81 M1073.5 869.9 C782.94 870.48, 491.74 871.33, 0.67 869.57 M1074.26 869.97 C747.47 866.68, 421.24 866.98, 0.14 869.56 M-0.24 870.51 C2.02 569.04, 2.06 267.48, 0.29 0.17 M0.26 869.78 C-0.56 621.13, -0.04 372.26, 0.29 -0.39" stroke="#fff" stroke-width="1" fill="none"></path></g><g transform="translate(182.28025024058297 15.307744497163526) rotate(0 90.5 35)"><text x="90.5" y="25" font-family="Virgil, Segoe UI Emoji" font-size="28px" fill="#fff" text-anchor="middle" style="white-space: pre;" direction="ltr">наименование</text><text x="90.5" y="60" font-family="Virgil, Segoe UI Emoji" font-size="28px" fill="#fff" text-anchor="middle" style="white-space: pre;" direction="ltr">показателя</text></g><g stroke-linecap="round"><g transform="translate(11.654761959332973 81.95667027841353) rotate(0 537.3796473942512 1.1762159840949096)"><path d="M-0.79 0.3 C177.96 0.87, 894.31 2.67, 1073.3 2.94 M0.99 -0.59 C180.05 -0.34, 896.47 0.49, 1075.55 1.07" stroke="#fff" stroke-width="1" fill="none"></path></g></g><g transform="translate(21.079993892926723 95.09515904794478) rotate(0 134 10)"><text x="134" y="14" font-family="Virgil, Segoe UI Emoji" font-size="16px" fill="#fff" text-anchor="middle" style="white-space: pre;" direction="ltr">интенсивность поступления заявок</text></g><g stroke-linecap="round"><g transform="translate(569.1417735517534 15.527287954194719) rotate(0 -4.078240981192721 431.5185796809236)"><path d="M1.14 0.01 C-0.46 144.12, -7.66 719.98, -9.3 864.07 M0.29 -1.04 C-0.97 142.75, -5.39 718.16, -7.04 862.11" stroke="#fff" stroke-width="1" fill="none"></path></g></g><g transform="translate(726.0857922327705 27.0162100733354) rotate(0 54 17.5)"><text x="54" y="25" font-family="Virgil, Segoe UI Emoji" font-size="28px" fill="#fff" text-anchor="middle" style="white-space: pre;" direction="ltr">формула</text></g><g stroke-linecap="round"><g transform="translate(949.9586314461185 11.143938455358125) rotate(0 0.47594201336005426 434.82670157004645)"><path d="M-0.77 -1.14 C-0.55 143.6, 1.16 724.16, 1.72 869.25 M1.03 0.87 C1.06 145.76, 0.62 725.8, 0.85 870.8" stroke="#fff" stroke-width="1" fill="none"></path></g></g><g transform="translate(980.2923352015205 25.8084464014604) rotate(0 31.5 17.5)"><text x="31.5" y="25" font-family="Virgil, Segoe UI Emoji" font-size="28px" fill="#fff" text-anchor="middle" style="white-space: pre;" direction="ltr">дано</text></g><g stroke-linecap="round"><g transform="translate(12.264136959332973 118.92542027841353) rotate(0 536.1359088158422 1.174790877364586)"><path d="M-0.09 1 C178.88 1.02, 895.03 0.94, 1073.86 0.94 M-1.59 0.48 C177.31 0.53, 894.5 1.66, 1073.48 1.87" stroke="#fff" stroke-width="1" fill="none"></path></g></g><g transform="translate(764.3403819501909 87.02103836476579) rotate(0 8 17.5)"><text x="8" y="25" font-family="Virgil, Segoe UI Emoji" font-size="28px" fill="#862e9c" text-anchor="middle" style="white-space: pre;" direction="ltr">λ</text></g><g transform="translate(976.389136959333 90.90979527841353) rotate(0 5 17.5)"><text x="5" y="25" font-family="Virgil, Segoe UI Emoji" font-size="28px" fill="#c92a2a" text-anchor="middle" style="white-space: pre;" direction="ltr">1</text></g><g transform="translate(987.9366099933259 98.62488316903853) rotate(0 31.5 10)"><text x="31.5" y="14" font-family="Virgil, Segoe UI Emoji" font-size="16px" fill="#fff" text-anchor="middle" style="white-space: pre;" direction="ltr">авт/мин</text></g><g transform="translate(18.498511959332973 127.51917027841353) rotate(0 112 10)"><text x="0" y="14" font-family="Virgil, Segoe UI Emoji" font-size="16px" fill="#fff" text-anchor="start" style="white-space: pre;" direction="ltr">среднее время обслуживания</text></g><g transform="translate(819.345191646833 156.36676549325728) rotate(0 9 17.5)"><text x="9" y="25" font-family="Virgil, Segoe UI Emoji" font-size="28px" fill="#862e9c" text-anchor="middle" style="white-space: pre;" direction="ltr">t</text></g><g transform="translate(840.6575695765205 171.19067906747603) rotate(0 9.582783508300736 7.098358154296875)"><text x="9.582783508300782" y="10.19671630859375" font-family="Virgil, Segoe UI Emoji" font-size="11.357373046875px" fill="#862e9c" text-anchor="middle" style="white-space: pre;" direction="ltr">обс</text></g><g transform="translate(989.896461178083 123.35132359872603) rotate(0 11 17.5)"><text x="11" y="25" font-family="Virgil, Segoe UI Emoji" font-size="28px" fill="#c92a2a" text-anchor="middle" style="white-space: pre;" direction="ltr">2</text></g><g transform="translate(1015.3128430140205 132.09271764169478) rotate(0 13 10)"><text x="13" y="14" font-family="Virgil, Segoe UI Emoji" font-size="16px" fill="#fff" text-anchor="middle" style="white-space: pre;" direction="ltr">мин</text></g><g stroke-linecap="round"><g transform="translate(11.275106036416219 152.78479527841353) rotate(0 537.7620160991232 2.418290266115207)"><path d="M0.44 1.13 C179.78 1.4, 897.16 2.24, 1076.32 2.64 M-0.79 0.67 C178.45 1.67, 896.62 4.01, 1075.87 4.16" stroke="#fff" stroke-width="1" fill="none"></path></g></g><g transform="translate(18.904761959332973 161.00354527841353) rotate(0 112.5 10)"><text x="0" y="14" font-family="Virgil, Segoe UI Emoji" font-size="16px" fill="#fff" text-anchor="start" style="white-space: pre;" direction="ltr">интенсивность обслуживания</text></g><g transform="translate(734.670386959333 158.66399462349307) rotate(0 41.5 17.5)"><text x="0" y="25" font-family="Virgil, Segoe UI Emoji" font-size="28px" fill="#862e9c" text-anchor="start" style="white-space: pre;" direction="ltr">h = 1/</text></g><g transform="translate(752.5791195643133 121.84729527841353) rotate(0 9 17.5)"><text x="9" y="25" font-family="Virgil, Segoe UI Emoji" font-size="28px" fill="#862e9c" text-anchor="middle" style="white-space: pre;" direction="ltr">t</text></g><g transform="translate(773.8914974940008 136.67120885263228) rotate(0 9.582783508300736 7.098358154296875)"><text x="9.582783508300782" y="10.19671630859375" font-family="Virgil, Segoe UI Emoji" font-size="11.357373046875px" fill="#862e9c" text-anchor="middle" style="white-space: pre;" direction="ltr">обс</text></g><g transform="translate(998.0972668421455 162.50970982919478) rotate(0 22 17.5)"><text x="0" y="25" font-family="Virgil, Segoe UI Emoji" font-size="28px" fill="#c92a2a" text-anchor="start" style="white-space: pre;" direction="ltr">1/2</text></g><g stroke-linecap="round"><g transform="translate(11.498511959332973 182.97229527841353) rotate(0 536.6013593386393 2.638343420298753)"><path d="M-0.03 -0.69 C178.92 -0.04, 895.82 3.72, 1074.7 4.76 M-1.5 1.57 C177.25 2.28, 894.55 5.07, 1074.09 5.96" stroke="#fff" stroke-width="1" fill="none"></path></g></g><g transform="translate(18.232886959332973 192.75354527841353) rotate(0 96 10)"><text x="0" y="14" font-family="Virgil, Segoe UI Emoji" font-size="16px" fill="#fff" text-anchor="start" style="white-space: pre;" direction="ltr">число каналов (колонок)</text></g><g transform="translate(759.621802974958 187.4959464014604) rotate(0 10 17.5)"><text x="0" y="25" font-family="Virgil, Segoe UI Emoji" font-size="28px" fill="#862e9c" text-anchor="start" style="white-space: pre;" direction="ltr">С</text></g><g transform="translate(1007.401588131208 189.29376744638228) rotate(0 11 17.5)"><text x="0" y="25" font-family="Virgil, Segoe UI Emoji" font-size="28px" fill="#c92a2a" text-anchor="start" style="white-space: pre;" direction="ltr">2</text></g><g stroke-linecap="round"><g transform="translate(12.725684810895473 215.58453893075728) rotate(0 536.6392502723915 2.252140703815968)"><path d="M-0.22 0.1 C178.92 1.01, 895.92 3.4, 1075.07 4.39 M-1.79 -0.9 C177.25 0.23, 895.32 4.57, 1074.65 5.4" stroke="#fff" stroke-width="1" fill="none"></path></g></g><g transform="translate(18.446754146832973 222.50867223153853) rotate(0 86.5 10)"><text x="0" y="14" font-family="Virgil, Segoe UI Emoji" font-size="16px" fill="#fff" text-anchor="start" style="white-space: pre;" direction="ltr">интенсивность потока</text></g><g transform="translate(734.099342037458 222.35236119638228) rotate(0 36 18)"><text x="0" y="25" font-family="Virgil, Segoe UI Emoji" font-size="28px" fill="#862e9c" text-anchor="start" style="white-space: pre;" direction="ltr">ρ=λ/h</text></g><g transform="translate(1006.3184485449892 221.06695309871787) rotate(0 11 18)"><text x="0" y="25" font-family="Virgil, Segoe UI Emoji" font-size="28px" fill="#c92a2a" text-anchor="start" style="white-space: pre;" direction="ltr">2</text></g><g stroke-linecap="round"><g transform="translate(13.106422115582973 252.09436559091353) rotate(0 537.2286131229251 2.15330355064944)"><path d="M-0.75 -0.51 C178.45 0.34, 896.13 5.29, 1075.2 6.13 M1.06 -1.83 C180.19 -0.8, 896.25 3.2, 1074.85 4.4" stroke="#fff" stroke-width="1" fill="none"></path></g></g><g transform="translate(18.412147213239223 293.1856987408469) rotate(0 243 10)"><text x="0" y="14" font-family="Virgil, Segoe UI Emoji" font-size="16px" fill="#fff" text-anchor="start" style="white-space: pre;" direction="ltr">вероятность P того, что все каналы обслуживания свободны</text></g><g transform="translate(130.66440551402047 304.9019827784135) rotate(0 3.858065795898426 5.93548583984375)"><text x="0" y="7.8709716796875" font-family="Virgil, Segoe UI Emoji" font-size="9.49677734374999px" fill="#fff" text-anchor="start" style="white-space: pre;" direction="ltr">0</text></g><g transform="translate(569.3409679197753 289.829324652118) rotate(0 64.6593853558852 15.50053758531493)"><text x="0" y="21.001075170629882" font-family="Virgil, Segoe UI Emoji" font-size="24.80086013650391px" fill="#862e9c" text-anchor="start" style="white-space: pre;" direction="ltr">P = Σ  + </text></g><g transform="translate(648.7493157992742 273.00660288807796) rotate(0 5.75734253168838 15.50053758531493)"><text x="0" y="21.001075170629882" font-family="Virgil, Segoe UI Emoji" font-size="24.800860136503907px" fill="#862e9c" text-anchor="start" style="white-space: pre;" direction="ltr">ρ</text></g><g transform="translate(657.952976236894 277.5174474597196) rotate(0 3.655389500404908 8.529242167611443)"><text x="0" y="12.058484335222865" font-family="Virgil, Segoe UI Emoji" font-size="13.646787468178301px" fill="#862e9c" text-anchor="start" style="white-space: pre;" direction="ltr">n</text></g><g stroke-linecap="round"><g transform="translate(644.7774111662068 305.54054023328246) rotate(0 11.365969078768899 -0.8346731003823038)"><path d="M-0.31 -0.47 C3.33 -0.69, 17.3 -0.94, 20.83 -1.12 M1.73 -1.77 C5.82 -1.85, 19.45 -0.06, 23.04 0.1" stroke="#862e9c" stroke-width="1" fill="none"></path></g></g><g transform="translate(648.1311756390115 297.99754355663396) rotate(0 10.186067556064131 15.500537585314959)"><text x="0" y="21.001075170629882" font-family="Virgil, Segoe UI Emoji" font-size="24.800860136503907px" fill="#862e9c" text-anchor="start" style="white-space: pre;" direction="ltr">n!</text></g><g transform="translate(623.2161697465411 314.293694784591) rotate(0 10.765901221975241 7.246279668637158)"><text x="0" y="10.492559337274336" font-family="Virgil, Segoe UI Emoji" font-size="11.594047469819484px" fill="#862e9c" text-anchor="start" style="white-space: pre;" direction="ltr">n=0</text></g><g transform="translate(625.2343645181145 283.1464477891636) rotate(0 9.529695043052016 8.552290423251804)"><text x="0" y="12.10458084650362" font-family="Virgil, Segoe UI Emoji" font-size="13.683664677202898px" fill="#862e9c" text-anchor="start" style="white-space: pre;" direction="ltr">C-1</text></g><g stroke-linecap="round"><g transform="translate(687.653005308444 303.63065256652044) rotate(0 45.704982649520275 0.4142101748213065)"><path d="M-0.46 0.74 C14.28 0.7, 74.51 -0.3, 89.61 -0.26 M1.5 0.08 C16.51 0.21, 77.26 1.23, 91.87 1.07" stroke="#862e9c" stroke-width="1" fill="none"></path></g></g><g transform="translate(720.4158394035655 272.8564722479183) rotate(0 6 16)"><text x="0" y="22" font-family="Virgil, Segoe UI Emoji" font-size="24.800860136503907px" fill="#862e9c" text-anchor="start" style="white-space: pre;" direction="ltr">ρ</text></g><g transform="translate(728.5199953301287 274.4214486230992) rotate(0 5.314470029250856 8.857450048751389)"><text x="0" y="12.714900097502792" font-family="Virgil, Segoe UI Emoji" font-size="14.044983476961784px" fill="#862e9c" text-anchor="start" style="white-space: pre;" direction="ltr">C</text></g><g stroke-linecap="round"><g transform="translate(629.3942308361482 273.3022656951863) rotate(0 -6.373319121158147 29.34985775522904)"><path d="M0.15 -0.42 C-1.56 2.11, -8.57 9.06, -10.8 14.27 C-13.02 19.48, -13.33 25.49, -13.2 30.84 C-13.07 36.19, -12.37 41.49, -10.01 46.36 C-7.65 51.22, -0.87 57.87, 0.98 60.03 M-1.22 -1.68 C-2.54 1.07, -6.63 10.31, -8.71 15.41 C-10.79 20.51, -13.41 23.65, -13.69 28.91 C-13.96 34.17, -12.65 41.72, -10.36 46.97 C-8.08 52.21, -1.61 57.95, 0.02 60.38" stroke="#862e9c" stroke-width="1" fill="none"></path></g></g><g stroke-linecap="round"><g transform="translate(779.8599036766682 273.5404610376838) rotate(0 4.788272150134048 33.537246895398766)"><path d="M-1.03 -0.81 C0.7 4.86, 10.34 22.72, 10.6 33.23 C10.87 43.73, 2.18 56.6, 0.57 62.25 C-1.04 67.89, 0.91 66.04, 0.93 67.1 M0.62 1.39 C2.21 6.76, 10.03 21.06, 9.84 31.43 C9.64 41.8, 0.81 57.52, -0.55 63.6 C-1.91 69.67, 1.66 66.91, 1.7 67.88" stroke="#862e9c" stroke-width="1" fill="none"></path></g></g><g transform="translate(784.679169589424 258.4407152489381) rotate(0 9.30032255118897 15.50053758531493)"><text x="0" y="21.001075170629882" font-family="Virgil, Segoe UI Emoji" font-size="24.800860136503903px" fill="#862e9c" text-anchor="start" style="white-space: pre;" direction="ltr">-1</text></g><g stroke-linecap="round"><g transform="translate(16.684302974957973 352.94782018075716) rotate(0 839.3988859684359 2.8778564800275603)"><path d="M-0.12 -0.16 C279.72 0.84, 1398.33 4.83, 1678.21 5.75 M-1.64 -1.29 C278.63 -0.1, 1400.43 5.79, 1680.44 7.04" stroke="#fff" stroke-width="1" fill="none"></path></g></g><g transform="translate(20.558756658933362 415.03944086372303) rotate(0 228.5 10)"><text x="0" y="14" font-family="Virgil, Segoe UI Emoji" font-size="16px" fill="#fff" text-anchor="start" style="white-space: pre;" direction="ltr">P - вероятность того, что в системе находится n заявок</text></g><g stroke-linecap="round"><g transform="translate(596.5125123200037 372.6754202784135) rotate(0 -3.9322840884003654 60.91512127978535)"><path d="M0.73 0.11 C-0.03 1.28, -5.33 -0.12, -5.46 8.19 C-5.59 16.49, 0.02 41.72, -0.05 49.94 C-0.12 58.16, -5.94 55.25, -5.88 57.53 C-5.81 59.8, 0.76 53.51, 0.35 63.61 C-0.06 73.7, -7.95 108.8, -8.36 118.09 C-8.76 127.37, -3.28 118.86, -2.07 119.29 M-0.35 -0.88 C-1.09 0.45, -5.75 -2.24, -5.84 6.37 C-5.94 14.99, -0.99 42.05, -0.93 50.79 C-0.86 59.53, -6.02 56.59, -5.48 58.79 C-4.95 60.98, 3.07 54.22, 2.29 63.98 C1.51 73.74, -9.45 107.82, -10.16 117.36 C-10.87 126.9, -3.31 120.66, -1.97 121.22" stroke="#862e9c" stroke-width="1" fill="none"></path></g></g><g transform="translate(25.94434320678488 426.21973871528553) rotate(0 3 6)"><text x="0" y="8" font-family="Virgil, Segoe UI Emoji" font-size="9.49677734374999px" fill="#fff" text-anchor="start" style="white-space: pre;" direction="ltr">n</text></g><g transform="translate(573.6654512984883 308.0122088581841) rotate(0 4.188362893560566 6.544317021188334)"><text x="4.188362893560543" y="9.088634042376693" font-family="Virgil, Segoe UI Emoji" font-size="10.47090723390136px" fill="#862e9c" text-anchor="middle" style="white-space: pre;" direction="ltr">0</text></g><g transform="translate(610.163795162458 377.1309866846635) rotate(0 33 17.5)"><text x="33" y="25" font-family="Virgil, Segoe UI Emoji" font-size="28px" fill="#862e9c" text-anchor="middle" style="white-space: pre;" direction="ltr">P = </text></g><g transform="translate(620.034156490583 393.9689383448198) rotate(0 4.3575439453125 10.1676025390625)"><text x="4.3575439453125" y="14.335205078125007" font-family="Virgil, Segoe UI Emoji" font-size="16.2681640625px" fill="#862e9c" text-anchor="middle" style="white-space: pre;" direction="ltr">n</text></g><g transform="translate(609.007545162458 457.4535880030229) rotate(0 33 17.5)"><text x="33" y="25" font-family="Virgil, Segoe UI Emoji" font-size="28px" fill="#862e9c" text-anchor="middle" style="white-space: pre;" direction="ltr">P = </text></g><g transform="translate(618.877906490583 474.29153966317915) rotate(0 4.3575439453125 10.1676025390625)"><text x="4.3575439453125" y="14.335205078125007" font-family="Virgil, Segoe UI Emoji" font-size="16.2681640625px" fill="#862e9c" text-anchor="middle" style="white-space: pre;" direction="ltr">n</text></g><g transform="translate(666.186011959333 357.2770438135698) rotate(0 6.5 17.5)"><text x="0" y="25" font-family="Virgil, Segoe UI Emoji" font-size="28px" fill="#862e9c" text-anchor="start" style="white-space: pre;" direction="ltr">ρ</text></g><g transform="translate(677.6966320765205 359.9818167627885) rotate(0 4.48995535714289 10.4765625)"><text x="4.489955357142861" y="14.953124999999996" font-family="Virgil, Segoe UI Emoji" font-size="16.762500000000017px" fill="#862e9c" text-anchor="middle" style="white-space: pre;" direction="ltr">n</text></g><g stroke-linecap="round"><g transform="translate(661.3260266077705 392.221929067476) rotate(0 11.103675505146384 -0.580954506620742)"><path d="M-0.44 0.53 C3.5 0.1, 18.68 -1.12, 22.65 -1.69 M1.53 -0.24 C5.34 -0.53, 17.89 0.22, 21.41 -0.1" stroke="#862e9c" stroke-width="1" fill="none"></path></g></g><g transform="translate(687.5243036725024 432.8148856104448) rotate(0 6.5 17.5)"><text x="0" y="25" font-family="Virgil, Segoe UI Emoji" font-size="28px" fill="#862e9c" text-anchor="start" style="white-space: pre;" direction="ltr">ρ</text></g><g transform="translate(699.0349237896899 435.4102835596635) rotate(0 4.48995535714289 10.4765625)"><text x="4.489955357142861" y="14.953124999999996" font-family="Virgil, Segoe UI Emoji" font-size="16.762500000000017px" fill="#862e9c" text-anchor="middle" style="white-space: pre;" direction="ltr">n</text></g><g stroke-linecap="round"><g transform="translate(665.2800409771897 470.3670706690385) rotate(0 31.22960962849669 1.0330212551075988)"><path d="M0.46 1.05 C10.94 1.29, 52.66 0.47, 63.22 0.44 M-0.76 0.56 C9.56 1.03, 51.68 1.38, 62.39 1.63" stroke="#862e9c" stroke-width="1" fill="none"></path></g></g><g transform="translate(660.9275891077705 383.6939139307573) rotate(0 11.5 17.5)"><text x="11.5" y="25" font-family="Virgil, Segoe UI Emoji" font-size="28px" fill="#862e9c" text-anchor="middle" style="white-space: pre;" direction="ltr">n!</text></g><g transform="translate(695.3404309046455 374.652348989351) rotate(0 58 17.5)"><text x="58" y="25" font-family="Virgil, Segoe UI Emoji" font-size="28px" fill="#862e9c" text-anchor="middle" style="white-space: pre;" direction="ltr">P; o n C</text></g><g stroke-linecap="round"><g transform="translate(761.493231601059 382.243169301851) rotate(0 -1.8452270964299942 5.951986498517385)"><path d="M-1.05 1.11 C-2.1 2.71, -6.07 8.61, -5.79 10.06 C-5.51 11.51, -0.69 9.89, 0.61 9.83 M0.59 0.65 C-0.66 1.9, -7.19 6.76, -6.78 8.53 C-6.36 10.3, 1.54 10.87, 3.1 11.25" stroke="#862e9c" stroke-width="1" fill="none"></path></g></g><g stroke-linecap="round"><g transform="translate(754.4783703577705 397.5505608526155) rotate(0 4.443054813211347 -0.8967755503759349)"><path d="M-0.64 -0.26 C1.05 -0.51, 7.76 -1.3, 9.53 -1.53 M1.22 -1.44 C2.78 -1.56, 7.01 -0.57, 8.35 -0.48" stroke="#862e9c" stroke-width="1" fill="none"></path></g></g><g stroke-linecap="round"><g transform="translate(788.42244035984 385.1677816319376) rotate(0 -1.9466193292300886 4.795150421896437)"><path d="M0.91 -0.92 C0.07 0.3, -5.71 6.24, -5.78 8.15 C-5.85 10.05, -0.66 10.25, 0.47 10.51 M-0.07 1.21 C-1.02 2.5, -7.25 8.04, -6.76 9.28 C-6.26 10.52, 1.58 8.36, 2.89 8.64" stroke="#862e9c" stroke-width="1" fill="none"></path></g></g><g stroke-linecap="round"><g transform="translate(781.4075791165515 400.6356225277817) rotate(0 5.290410406011688 -0.7859954900846446)"><path d="M-0.92 -0.06 C0.48 -0.46, 7.23 -1.37, 9.2 -1.52 M0.79 -1.13 C2.51 -1.49, 9.87 -0.67, 11.5 -0.45" stroke="#862e9c" stroke-width="1" fill="none"></path></g></g><g transform="translate(702.094703365583 394.018071645601) rotate(0 4.84765625 8.079427083333314)"><text x="4.84765625" y="11.158854166666664" font-family="Virgil, Segoe UI Emoji" font-size="12.927083333333337px" fill="#862e9c" text-anchor="middle" style="white-space: pre;" direction="ltr">0</text></g><g transform="translate(667.732398678083 475.4647269190385) rotate(0 23 17.5)"><text x="23" y="25" font-family="Virgil, Segoe UI Emoji" font-size="28px" fill="#862e9c" text-anchor="middle" style="white-space: pre;" direction="ltr">C!C</text></g><g transform="translate(732.0142590296455 454.64750686695527) rotate(0 43.5 17.5)"><text x="43.5" y="25" font-family="Virgil, Segoe UI Emoji" font-size="28px" fill="#862e9c" text-anchor="middle" style="white-space: pre;" direction="ltr">P; n C</text></g><g transform="translate(738.7728039515205 473.7769624333615) rotate(0 4.84765625 8.079427083333314)"><text x="4.84765625" y="11.158854166666664" font-family="Virgil, Segoe UI Emoji" font-size="12.927083333333337px" fill="#862e9c" text-anchor="middle" style="white-space: pre;" direction="ltr">0</text></g><g stroke-linecap="round"><g transform="translate(787.7899041485266 468.3576102198198) rotate(0 4.290151271550258 4.319278575967758)"><path d="M-0.98 0.01 C0.42 1, 7.1 4.99, 7.29 6.42 C7.48 7.85, 1.36 8.05, 0.16 8.57 M0.71 -1.03 C2.58 -0.43, 9.74 2.89, 9.55 4.67 C9.37 6.45, 1.11 9.23, -0.41 9.67" stroke="#862e9c" stroke-width="1" fill="none"></path></g></g><g transform="translate(707.0872570765205 471.6890921534135) rotate(0 12.69830322265625 9.876458062065979)"><text x="12.69830322265627" y="13.752916124131971" font-family="Virgil, Segoe UI Emoji" font-size="15.802332899305569px" fill="#862e9c" text-anchor="middle" style="white-space: pre;" direction="ltr">n-C</text></g><g stroke-linecap="round" transform="translate(1087.2900628496443 256.76512293421035) rotate(0 305.16699965125474 129.52451932944632)"><path d="M-0.72 -0.71 C185.48 2.41, 370.48 2.1, 609.88 -0.46 M-0.28 0.27 C190.05 -1.6, 380.7 -1.28, 610.07 -0.14 M610.87 1.17 C611.65 59.43, 611.49 120.31, 609.27 258.65 M609.59 -0.52 C609.65 67.74, 610.18 134.76, 610.99 258.25 M609.9 259.19 C439.98 260.99, 270.54 259.91, -0.1 259.7 M610.1 259.02 C376.07 257.27, 142.88 257.48, 0.23 259.41 M-1.14 260.53 C-1.88 160.36, -1.82 60.84, -0.16 0.39 M-0.68 259.73 C-2.41 183.65, -2.48 107.16, 0.71 -0.12" stroke="#fff" stroke-width="1" fill="none"></path></g><g stroke-linecap="round"><g transform="translate(1631.113699227948 515.1505001369208) rotate(0 -810.2723982531575 1.3083492975163722)"><path d="M0.42 0.87 C-269.67 1.11, -1351.04 2.11, -1620.97 2.4 M-0.81 0.28 C-270.48 0.07, -1348.86 0.46, -1618.61 0.51" stroke="#fff" stroke-width="1" fill="none"></path></g></g><g stroke-linecap="round"><g transform="translate(1182.1549653279133 257.4403345750984) rotate(0 0.6719263435423954 128.03416679996178)"><path d="M-0.36 0.4 C-0.11 43.18, 0.57 212.79, 0.47 255.59 M1.66 -0.44 C1.94 42.54, 0.7 213.92, 0.11 256.5" stroke="#fff" stroke-width="1" fill="none"></path></g></g><g stroke-linecap="round"><g transform="translate(1498.5747840959693 258.4384814896421) rotate(0 1.4936433892252126 128.74193302181362)"><path d="M0.68 -1.08 C1.34 41.63, 2.82 214.04, 3.42 257.28 M-0.43 0.96 C0.13 44.36, 1.74 216.01, 2.47 258.57" stroke="#fff" stroke-width="1" fill="none"></path></g></g><g stroke-linecap="round"><g transform="translate(1288.7766105651376 258.66043119404196) rotate(0 0.13875129730411118 128.42219314677754)"><path d="M0.85 0.55 C0.96 43.46, 0.26 214.3, 0.02 257.06 M-0.17 -0.21 C-0.1 42.36, -0.39 211.96, -0.58 255.08" stroke="#fff" stroke-width="1" fill="none"></path></g></g><g stroke-linecap="round"><g transform="translate(1390.6962595408197 253.02386450405504) rotate(0 1.7762573491327203 130.126568827345)"><path d="M-0.49 -0.35 C0.02 43.31, 3.23 218.12, 4.04 261.83 M1.45 -1.58 C1.75 41.74, 2.86 216.49, 3.28 260.09" stroke="#fff" stroke-width="1" fill="none"></path></g></g><g stroke-linecap="round"><g transform="translate(1597.0096738582051 256.6074943588539) rotate(0 2.1365534010363945 128.88588191281815)"><path d="M-0.33 0.11 C0.05 43.09, 1.94 214.31, 2.42 257.33 M1.7 -0.87 C2.43 42.31, 4.06 215.81, 4.6 258.64" stroke="#fff" stroke-width="1" fill="none"></path></g></g><g transform="translate(1104.7770886924836 293.0568055077773) rotate(0 20 17.5)"><text x="20" y="25" font-family="Virgil, Segoe UI Emoji" font-size="28px" fill="#e67700" text-anchor="middle" style="white-space: pre;" direction="ltr">n=1</text></g><g transform="translate(1203.2388569792695 293.5764039984459) rotate(0 26 17.5)"><text x="26" y="25" font-family="Virgil, Segoe UI Emoji" font-size="28px" fill="#e67700" text-anchor="middle" style="white-space: pre;" direction="ltr">n=2</text></g><g transform="translate(1306.4997681949244 292.79985423847097) rotate(0 25.5 17.5)"><text x="25.5" y="25" font-family="Virgil, Segoe UI Emoji" font-size="28px" fill="#e67700" text-anchor="middle" style="white-space: pre;" direction="ltr">n=3</text></g><g transform="translate(1420.257889785832 293.196041903543) rotate(0 25 17.5)"><text x="25" y="25" font-family="Virgil, Segoe UI Emoji" font-size="28px" fill="#e67700" text-anchor="middle" style="white-space: pre;" direction="ltr">n=4</text></g><g transform="translate(1524.1826855085676 290.83677843785676) rotate(0 25 17.5)"><text x="25" y="25" font-family="Virgil, Segoe UI Emoji" font-size="28px" fill="#e67700" text-anchor="middle" style="white-space: pre;" direction="ltr">n=5</text></g><g transform="translate(1618.693147246524 289.91615331381877) rotate(0 25 17.5)"><text x="25" y="25" font-family="Virgil, Segoe UI Emoji" font-size="28px" fill="#e67700" text-anchor="middle" style="white-space: pre;" direction="ltr">n=6</text></g><g transform="translate(1096.0154295715897 396.3388637173134) rotate(0 14.5 35.5)"><text x="14.5" y="25.5" font-family="Virgil, Segoe UI Emoji" font-size="28px" fill="#c92a2a" text-anchor="middle" style="white-space: pre;" direction="ltr">2</text><text x="14.5" y="61" font-family="Virgil, Segoe UI Emoji" font-size="28px" fill="#c92a2a" text-anchor="middle" style="white-space: pre;" direction="ltr">13</text></g><g transform="translate(1195.2104167683763 398.69597709955906) rotate(0 14.5 35.5)"><text x="14.5" y="25.5" font-family="Virgil, Segoe UI Emoji" font-size="28px" fill="#c92a2a" text-anchor="middle" style="white-space: pre;" direction="ltr">2</text><text x="14.5" y="61" font-family="Virgil, Segoe UI Emoji" font-size="28px" fill="#c92a2a" text-anchor="middle" style="white-space: pre;" direction="ltr">13</text></g><g stroke-linecap="round"><g transform="translate(1090.001573412254 428.7587909288716) rotate(0 19.24039469713921 -0.27267102301880186)"><path d="M-0.8 -0.49 C5.59 -0.45, 32.35 1.03, 39.28 1.24 M0.98 -1.79 C7.09 -1.55, 31.49 -0.45, 38.09 -0.36" stroke="#c92a2a" stroke-width="1" fill="none"></path></g></g><g stroke-linecap="round"><g transform="translate(1191.2731574550753 430.0951898196756) rotate(0 20.081196070170108 -0.12256235566013629)"><path d="M0.83 0.79 C7.7 1.04, 33.88 0.64, 40.35 0.75 M-0.19 0.15 C6.66 0.12, 33.23 -1.04, 39.73 -1.12" stroke="#c92a2a" stroke-width="1" fill="none"></path></g></g><g transform="translate(1303.9832029590677 397.98750862907366) rotate(0 14.5 35.5)"><text x="14.5" y="25.5" font-family="Virgil, Segoe UI Emoji" font-size="28px" fill="#c92a2a" text-anchor="middle" style="white-space: pre;" direction="ltr">2</text><text x="14.5" y="61" font-family="Virgil, Segoe UI Emoji" font-size="28px" fill="#c92a2a" text-anchor="middle" style="white-space: pre;" direction="ltr">13</text></g><g stroke-linecap="round"><g transform="translate(1300.0459436457666 429.38672134919) rotate(0 20.011315737465566 0.328248388292252)"><path d="M-0.5 -0.78 C6.23 -0.57, 34.01 1.02, 40.52 1.39 M1.43 1.43 C8.06 1.32, 33.42 0.14, 39.99 -0.14" stroke="#c92a2a" stroke-width="1" fill="none"></path></g></g><g transform="translate(1406.2757713110088 398.6528093314249) rotate(0 14.5 35.5)"><text x="14.5" y="25.5" font-family="Virgil, Segoe UI Emoji" font-size="28px" fill="#c92a2a" text-anchor="middle" style="white-space: pre;" direction="ltr">2</text><text x="14.5" y="61" font-family="Virgil, Segoe UI Emoji" font-size="28px" fill="#c92a2a" text-anchor="middle" style="white-space: pre;" direction="ltr">13</text></g><g stroke-linecap="round"><g transform="translate(1401.7744322689123 431.1631807728613) rotate(0 18.92966694206575 0.2652786874752451)"><path d="M-0.02 1.14 C6.58 1.22, 32.56 1.07, 39.34 1.07 M-1.49 0.69 C4.94 0.38, 31.21 -0.39, 38.19 -0.63" stroke="#c92a2a" stroke-width="1" fill="none"></path></g></g><g transform="translate(1521.5043218847104 397.5577596312388) rotate(0 14.5 35.5)"><text x="14.5" y="25.5" font-family="Virgil, Segoe UI Emoji" font-size="28px" fill="#c92a2a" text-anchor="middle" style="white-space: pre;" direction="ltr">2</text><text x="14.5" y="61" font-family="Virgil, Segoe UI Emoji" font-size="28px" fill="#c92a2a" text-anchor="middle" style="white-space: pre;" direction="ltr">13</text></g><g stroke-linecap="round"><g transform="translate(1509.5666050594314 432.420636727074) rotate(0 23.749786991353403 -0.833320631383458)"><path d="M-1.15 0.45 C7.13 0, 40.2 -1.9, 48.65 -2.12 M0.45 -0.35 C8.65 -0.73, 39.5 -0.56, 47.63 -0.99" stroke="#c92a2a" stroke-width="1" fill="none"></path></g></g><g transform="translate(1621.0228440969577 399.5463551242815) rotate(0 14.5 35.5)"><text x="14.5" y="25.5" font-family="Virgil, Segoe UI Emoji" font-size="28px" fill="#c92a2a" text-anchor="middle" style="white-space: pre;" direction="ltr">2</text><text x="14.5" y="61" font-family="Virgil, Segoe UI Emoji" font-size="28px" fill="#c92a2a" text-anchor="middle" style="white-space: pre;" direction="ltr">13</text></g><g stroke-linecap="round"><g transform="translate(1614.6658328629508 434.1566192038763) rotate(0 19.322046214272063 -0.6708006899391421)"><path d="M1.09 0.17 C7.55 -0.14, 32.11 -1.33, 38.44 -1.51 M0.2 -0.78 C6.51 -0.96, 30.97 -0.41, 37.36 -0.21" stroke="#c92a2a" stroke-width="1" fill="none"></path></g></g><g transform="translate(17.784333108733904 529.5707651069772) rotate(0 79 10)"><text x="0" y="14" font-family="Virgil, Segoe UI Emoji" font-size="16px" fill="#fff" text-anchor="start" style="white-space: pre;" direction="ltr">вероятность отказа</text></g><g transform="translate(636.3809717146333 521.965632098476) rotate(0 48.5 17.5)"><text x="0" y="25" font-family="Virgil, Segoe UI Emoji" font-size="28px" fill="#862e9c" text-anchor="start" style="white-space: pre;" direction="ltr">Q=1-ΣP</text></g><g transform="translate(730.5949996349846 534.5202630213856) rotate(0 2.4232718069663406 10.601814155477655)"><text x="2.4232718069663255" y="15.203628310955338" font-family="Virgil, Segoe UI Emoji" font-size="16.96290264876427px" fill="#862e9c" text-anchor="middle" style="white-space: pre;" direction="ltr">i</text></g><g stroke-linecap="round" transform="translate(1062.2991478646773 241.4789152047677) rotate(0 122.09975796214701 165.10836943397427)"><path d="M208.1 44.18 C218.14 52.92, 222.24 69.4, 228.07 84.54 C233.91 99.68, 240.49 118.11, 243.11 135.02 C245.72 151.93, 245.78 168.97, 243.78 185.99 C241.78 203.01, 236.34 221.61, 231.09 237.12 C225.83 252.64, 221.03 267.07, 212.26 279.08 C203.48 291.09, 189.76 300.86, 178.44 309.16 C167.12 317.47, 156.46 325.84, 144.34 328.92 C132.22 332, 117.97 329.84, 105.73 327.63 C93.48 325.41, 82.16 322.97, 70.88 315.63 C59.61 308.29, 47.39 295.61, 38.08 283.58 C28.77 271.54, 21.31 258.13, 15.03 243.43 C8.75 228.73, 3 211.84, 0.38 195.38 C-2.23 178.92, -2.82 161.85, -0.66 144.67 C1.5 127.48, 7.92 107.77, 13.33 92.26 C18.74 76.74, 23.67 63.75, 31.81 51.57 C39.96 39.39, 50.52 27.17, 62.19 19.18 C73.87 11.18, 89.52 6.77, 101.86 3.59 C114.21 0.42, 124.06 -1.93, 136.27 0.14 C148.47 2.21, 161.9 6.31, 175.1 16 C188.3 25.68, 207.85 48.48, 215.45 58.24 C223.05 68.01, 222.29 72.9, 220.69 74.59 M50.59 32.99 C59.08 21.07, 74.48 11.69, 85.74 5.95 C96.99 0.2, 106.14 -2.16, 118.1 -1.48 C130.06 -0.81, 145.04 4.26, 157.5 10.01 C169.97 15.77, 182.73 23.33, 192.88 33.03 C203.03 42.74, 210.78 55.03, 218.41 68.24 C226.05 81.45, 233.97 96.84, 238.67 112.28 C243.38 127.72, 246.31 143.76, 246.63 160.87 C246.96 177.98, 245.03 198.45, 240.63 214.95 C236.22 231.45, 227.5 246.43, 220.21 259.88 C212.91 273.32, 206.96 285.28, 196.86 295.64 C186.76 306, 172.16 315.85, 159.62 322.03 C147.07 328.21, 133.96 332.36, 121.61 332.71 C109.25 333.07, 96.77 329.37, 85.49 324.16 C74.2 318.95, 64 311.66, 53.88 301.48 C43.77 291.29, 32.43 276.95, 24.79 263.03 C17.15 249.11, 11.71 234.38, 8.05 217.97 C4.39 201.55, 2.79 181.97, 2.83 164.56 C2.87 147.16, 4.56 128.92, 8.29 113.53 C12.03 98.14, 18.46 85.83, 25.26 72.23 C32.05 58.63, 44.74 38.5, 49.06 31.91 C53.37 25.32, 49.71 30.44, 51.16 32.69" stroke="#c92a2a" stroke-width="1" fill="none"></path></g><g transform="translate(988.3248549013551 521.0932639771436) rotate(359.33973485467806 31.5 18)"><text x="31.5" y="25" font-family="Virgil, Segoe UI Emoji" font-size="28px" fill="#c92a2a" text-anchor="middle" style="white-space: pre;" direction="ltr">2/13</text></g><g stroke-linecap="round"><g transform="translate(10.387986458980208 559.0739485452414) rotate(0 537.1958046070249 1.241099215521615)"><path d="M0.89 0.65 C179.98 1.17, 895.64 2.19, 1074.49 2.54 M-0.1 -0.06 C178.86 0.14, 894.88 0.51, 1073.76 0.64" stroke="#fff" stroke-width="1" fill="none"></path></g></g><g transform="translate(202.3818819016803 524.2509932182551) rotate(0 10.5 17.5)"><text x="10.5" y="25" font-family="Virgil, Segoe UI Emoji" font-size="28px" fill="#e67700" text-anchor="middle" style="white-space: pre;" direction="ltr">P</text></g><g transform="translate(215.59574573264706 539.8665220326645) rotate(0 11.91816287693706 8.342714013855925)"><text x="11.918162876937044" y="11.685428027711865" font-family="Virgil, Segoe UI Emoji" font-size="13.348342422169488px" fill="#e67700" text-anchor="middle" style="white-space: pre;" direction="ltr">отк</text></g><g stroke-linecap="round"><g transform="translate(13.915673555343801 597.1602398179928) rotate(0 535.6512457411425 2.1130465391443067)"><path d="M0.44 1.08 C179.22 1.68, 893.69 2.16, 1072.09 2.39 M-0.79 0.61 C177.9 1.46, 892.25 3.13, 1071.25 3.62" stroke="#fff" stroke-width="1" fill="none"></path></g></g><g transform="translate(16.089490608863684 563.3652817052858) rotate(0 132 12.5)"><text x="132" y="18" font-family="Virgil, Segoe UI Emoji" font-size="20px" fill="#fff" text-anchor="middle" style="white-space: pre;" direction="ltr">вероятность обслужтвания</text></g><g transform="translate(297.8674904748425 559.9552214813434) rotate(0 11 17.5)"><text x="11" y="25" font-family="Virgil, Segoe UI Emoji" font-size="28px" fill="#e67700" text-anchor="middle" style="white-space: pre;" direction="ltr">Q</text></g><g transform="translate(633.3958852210469 562.094699577094) rotate(0 38.5 17.5)"><text x="0" y="25" font-family="Virgil, Segoe UI Emoji" font-size="28px" fill="#862e9c" text-anchor="start" style="white-space: pre;" direction="ltr">P=ΣP</text></g><g transform="translate(696.0885219586271 576.244443712907) rotate(0 2.4232718069663406 10.601814155477655)"><text x="2.4232718069663255" y="15.203628310955338" font-family="Virgil, Segoe UI Emoji" font-size="16.96290264876427px" fill="#862e9c" text-anchor="middle" style="white-space: pre;" direction="ltr">i</text></g><g transform="translate(990.9702127107266 562.8134293626575) rotate(356.142536813421 29 18)"><text x="29" y="25" font-family="Virgil, Segoe UI Emoji" font-size="28px" fill="#c92a2a" text-anchor="middle" style="white-space: pre;" direction="ltr">11/13</text></g><g transform="translate(17.45226638972514 604.3881550556597) rotate(0 114.49999999999997 12.5)"><text x="114.5" y="18" font-family="Virgil, Segoe UI Emoji" font-size="20px" fill="#fff" text-anchor="middle" style="white-space: pre;" direction="ltr">пропускная способность</text></g><g transform="translate(275.869098143384 597.4615877486034) rotate(0 10 17.5)"><text x="10" y="25" font-family="Virgil, Segoe UI Emoji" font-size="28px" fill="#e67700" text-anchor="middle" style="white-space: pre;" direction="ltr">A</text></g><g transform="translate(971.0938677785457 604.6358643492864) rotate(357.95219719955617 29 18)"><text x="29" y="25" font-family="Virgil, Segoe UI Emoji" font-size="28px" fill="#c92a2a" text-anchor="middle" style="white-space: pre;" direction="ltr">11/13</text></g><g transform="translate(1032.2149879839528 621.3290661792596) rotate(0 20.71698139438331 6.5768194902804)"><text x="20.716981394383257" y="9.1536389805608" font-family="Virgil, Segoe UI Emoji" font-size="10.522911184448642px" fill="#fff" text-anchor="middle" style="white-space: pre;" direction="ltr">авт/мин</text></g><g transform="translate(702.9647001191362 600.4775340318953) rotate(0 34.99999999999994 18)"><text x="0" y="25" font-family="Virgil, Segoe UI Emoji" font-size="28px" fill="#862e9c" text-anchor="start" style="white-space: pre;" direction="ltr">A=Pλ</text></g><g stroke-linecap="round"><g transform="translate(11.972194697340115 634.9490870110068) rotate(0 535.916134399368 0.9384984621570993)"><path d="M0.15 -0.36 C179.14 -0.03, 894.28 1.81, 1073.07 2.3 M-1.24 -1.6 C177.79 -1.15, 893.77 2.59, 1072.75 3.47" stroke="#fff" stroke-width="1" fill="none"></path></g></g><g stroke-linecap="round"><g transform="translate(13.003677156967797 716.5256314619237) rotate(0 537.1240651688508 1.5108405284540254)"><path d="M-0.3 -0.22 C178.85 0.16, 895.46 2.24, 1074.54 2.97 M1.75 -1.38 C180.85 -0.87, 895.44 3.78, 1074.1 4.4" stroke="#fff" stroke-width="1" fill="none"></path></g></g><g transform="translate(15.983510162865514 660.3014249780296) rotate(0 254.5 12.5)"><text x="254.5" y="18" font-family="Virgil, Segoe UI Emoji" font-size="20px" fill="#fff" text-anchor="middle" style="white-space: pre;" direction="ltr">среднее число клиентов в очереди на обслуживание</text></g><g transform="translate(579.9546882961135 656.7183258753299) rotate(0 32 17.5)"><text x="0" y="25" font-family="Virgil, Segoe UI Emoji" font-size="28px" fill="#862e9c" text-anchor="start" style="white-space: pre;" direction="ltr">L = </text></g><g stroke-linecap="round"><g transform="translate(632.0072937658291 675.1177196651313) rotate(0 42.88210724474351 -0.2678100211371657)"><path d="M-0.74 0.77 C13.53 0.39, 72.1 -1.02, 86.51 -1.3 M1.07 0.12 C15.11 -0.22, 71.05 -0.3, 85.57 -0.31" stroke="#862e9c" stroke-width="1" fill="none"></path></g></g><g transform="translate(720.2416158507667 657.3698799337272) rotate(0 10.5 17.5)"><text x="10.5" y="25" font-family="Virgil, Segoe UI Emoji" font-size="28px" fill="#862e9c" text-anchor="middle" style="white-space: pre;" direction="ltr">P</text></g><g transform="translate(645.4611089239867 644.7280094107955) rotate(0 22.5 17.5)"><text x="22.5" y="25" font-family="Virgil, Segoe UI Emoji" font-size="28px" fill="#862e9c" text-anchor="middle" style="white-space: pre;" direction="ltr">C ρ</text></g><g transform="translate(667.1457003382501 659.915144218844) rotate(0 0.00004999999998744897 0.00004999999998744897)" stroke="none"><path fill="#862e9c" d="M 1.57,-1.57 Q 1.57,-1.57 1.77,-1.27 1.98,-0.98 2.09,-0.64 2.20,-0.29 2.19,0.05 2.18,0.41 2.05,0.75 1.93,1.09 1.70,1.37 1.48,1.65 1.18,1.84 0.87,2.04 0.52,2.12 0.18,2.21 -0.17,2.18 -0.53,2.15 -0.86,2.01 -1.19,1.87 -1.46,1.63 -1.73,1.39 -1.90,1.07 -2.08,0.76 -2.15,0.41 -2.21,0.05 -2.17,-0.29 -2.12,-0.65 -1.96,-0.97 -1.80,-1.29 -1.54,-1.54 -1.29,-1.80 -0.97,-1.96 -0.65,-2.12 -0.29,-2.17 0.06,-2.21 0.41,-2.15 0.76,-2.08 1.07,-1.90 1.39,-1.73 1.63,-1.46 1.87,-1.19 2.01,-0.86 2.15,-0.53 2.18,-0.17 2.21,0.18 2.12,0.52 2.03,0.87 1.84,1.18 1.65,1.48 1.37,1.70 1.09,1.93 0.75,2.05 0.41,2.18 0.05,2.19 -0.30,2.20 -0.64,2.09 -0.98,1.98 -1.27,1.77 -1.57,1.56 -1.57,1.57 -1.57,1.57 -1.73,1.35 -1.90,1.14 -2.01,0.90 -2.12,0.66 -2.16,0.39 -2.21,0.13 -2.20,-0.13 -2.18,-0.40 -2.10,-0.65 -2.02,-0.91 -1.88,-1.14 -1.74,-1.36 -1.55,-1.55 -1.36,-1.74 -1.14,-1.88 -0.91,-2.02 -0.65,-2.10 -0.40,-2.18 -0.13,-2.20 0.13,-2.21 0.39,-2.16 0.66,-2.12 0.90,-2.01 1.14,-1.90 1.35,-1.73 1.57,-1.57 1.57,-1.57 L 1.57,-1.57 Z"></path></g><g transform="translate(628.7134806390867 675.9643161148686) rotate(0 44 17.5)"><text x="44" y="25" font-family="Virgil, Segoe UI Emoji" font-size="28px" fill="#862e9c" text-anchor="middle" style="white-space: pre;" direction="ltr">(c - ρ)</text></g><g transform="translate(711.1196571961302 667.0902451592236) rotate(0 5.4927015811953765 8.738388879174465)"><text x="5.492701581195367" y="12.476777758348891" font-family="Virgil, Segoe UI Emoji" font-size="13.981422206679117px" fill="#862e9c" text-anchor="middle" style="white-space: pre;" direction="ltr">2</text></g><g transform="translate(997.4786530318806 646.4216701563698) rotate(0 20 35.5)"><text x="20" y="25.5" font-family="Virgil, Segoe UI Emoji" font-size="28px" fill="#c92a2a" text-anchor="middle" style="white-space: pre;" direction="ltr">20</text><text x="20" y="61" font-family="Virgil, Segoe UI Emoji" font-size="28px" fill="#c92a2a" text-anchor="middle" style="white-space: pre;" direction="ltr">13</text></g><g transform="translate(590.332229595295 677.2572338599114) rotate(0 14.663322913103912 8.019004718103702)"><text x="14.663322913103912" y="11.038009436207407" font-family="Virgil, Segoe UI Emoji" font-size="12.830407548965923px" fill="#862e9c" text-anchor="middle" style="white-space: pre;" direction="ltr">сист</text></g><g transform="translate(18.81037343152616 718.1665618519742) rotate(0 225 12.5)"><text x="225" y="18" font-family="Virgil, Segoe UI Emoji" font-size="20px" fill="#fff" text-anchor="middle" style="white-space: pre;" direction="ltr">среднее число находящихся в системе заявок</text></g><g transform="translate(702.067458795241 724.2492215941502) rotate(0 55 18)"><text x="55" y="25" font-family="Virgil, Segoe UI Emoji" font-size="28px" fill="#862e9c" text-anchor="middle" style="white-space: pre;" direction="ltr">L =L +ρ</text></g><g transform="translate(761.455928722198 744.8171439860338) rotate(0 14.663322913103912 8.019004718103702)"><text x="14.663322913103912" y="11.038009436207407" font-family="Virgil, Segoe UI Emoji" font-size="12.830407548965923px" fill="#862e9c" text-anchor="middle" style="white-space: pre;" direction="ltr">сист</text></g><g transform="translate(722.5962759567278 741.891520211884) rotate(0 4.96730600150272 9.15030052908395)"><text x="4.967306001502719" y="13.300601058167917" font-family="Virgil, Segoe UI Emoji" font-size="14.640480846534336px" fill="#862e9c" text-anchor="middle" style="white-space: pre;" direction="ltr">S</text></g><g transform="translate(981.827530141258 727.6404559708275) rotate(0 39.5 18)"><text x="39.5" y="25" font-family="Virgil, Segoe UI Emoji" font-size="28px" fill="#c92a2a" text-anchor="middle" style="white-space: pre;" direction="ltr">46/13</text></g><g stroke-linecap="round"><g transform="translate(10.701291730601952 759.6739701832382) rotate(0 537.1832182064809 2.016550742830475)"><path d="M0.61 0.62 C179.41 1.2, 893.99 3.59, 1072.66 4.14 M-0.52 -0.11 C178.66 0.1, 895.62 2.17, 1074.89 2.52" stroke="#fff" stroke-width="1" fill="none"></path></g></g><g transform="translate(22.021362106158108 765.6095842639971) rotate(0 241 25)"><text x="0" y="18" font-family="Virgil, Segoe UI Emoji" font-size="20px" fill="#fff" text-anchor="start" style="white-space: pre;" direction="ltr">средняя продолжительность пребывания заявки в</text><text x="0" y="43" font-family="Virgil, Segoe UI Emoji" font-size="20px" fill="#fff" text-anchor="start" style="white-space: pre;" direction="ltr">очереди</text></g><g transform="translate(691.6025591146495 774.8728702325105) rotate(0 34 17.5)"><text x="0" y="25" font-family="Virgil, Segoe UI Emoji" font-size="28px" fill="#862e9c" text-anchor="start" style="white-space: pre;" direction="ltr">W = </text></g><g stroke-linecap="round"><g transform="translate(749.6049973609065 790.5818571341014) rotate(0 28.70066109301672 0.03356739625513683)"><path d="M-0.47 0.33 C9.32 0.07, 48.25 -0.41, 57.87 -0.7 M1.48 -0.55 C11.29 -0.69, 48.28 0.78, 57.49 0.77" stroke="#862e9c" stroke-width="1" fill="none"></path></g></g><g transform="translate(773.7201892109729 763.1014664254341) rotate(0 9.5 17.5)"><text x="0" y="25" font-family="Virgil, Segoe UI Emoji" font-size="28px" fill="#862e9c" text-anchor="start" style="white-space: pre;" direction="ltr">L</text></g><g transform="translate(785.1914635770224 772.7088496203847) rotate(0 14.663322913103912 8.019004718103702)"><text x="14.663322913103912" y="11.038009436207407" font-family="Virgil, Segoe UI Emoji" font-size="12.830407548965923px" fill="#862e9c" text-anchor="middle" style="white-space: pre;" direction="ltr">сист</text></g><g transform="translate(773.4369565897057 792.2056484839906) rotate(0 8 17.5)"><text x="8" y="25" font-family="Virgil, Segoe UI Emoji" font-size="28px" fill="#862e9c" text-anchor="middle" style="white-space: pre;" direction="ltr">λ</text></g><g transform="translate(996.8921224144126 759.2855582986982) rotate(0 20 35.5)"><text x="20" y="25.5" font-family="Virgil, Segoe UI Emoji" font-size="28px" fill="#c92a2a" text-anchor="middle" style="white-space: pre;" direction="ltr">20</text><text x="20" y="61" font-family="Virgil, Segoe UI Emoji" font-size="28px" fill="#c92a2a" text-anchor="middle" style="white-space: pre;" direction="ltr">13</text></g><g stroke-linecap="round"><g transform="translate(15.193403326388534 821.3382260022576) rotate(0 536.6678204140596 1.5878179911294978)"><path d="M-0.65 -0.8 C178.25 -0.09, 894.78 3.47, 1073.99 3.98 M1.2 1.39 C179.94 1.79, 894.38 2, 1073.25 2.27" stroke="#fff" stroke-width="1" fill="none"></path></g></g><g transform="translate(18.060112210693262 824.4559552501606) rotate(0 240.99999999999997 25)"><text x="0" y="18" font-family="Virgil, Segoe UI Emoji" font-size="20px" fill="#fff" text-anchor="start" style="white-space: pre;" direction="ltr">средняя продолжительность пребывания заявки в</text><text x="0" y="43" font-family="Virgil, Segoe UI Emoji" font-size="20px" fill="#fff" text-anchor="start" style="white-space: pre;" direction="ltr">системе</text></g><g transform="translate(709.6023432605073 786.00584546876) rotate(0 6.04164317100458 12.438677116774102)"><text x="0" y="17.877354233548203" font-family="Virgil, Segoe UI Emoji" font-size="19.901883386838556px" fill="#862e9c" text-anchor="start" style="white-space: pre;" direction="ltr">q</text></g><g transform="translate(689.7172793099649 835.0614308054763) rotate(0 67.5 17.5)"><text x="0" y="25" font-family="Virgil, Segoe UI Emoji" font-size="28px" fill="#862e9c" text-anchor="start" style="white-space: pre;" direction="ltr">W = W + </text></g><g stroke-linecap="round"><g transform="translate(807.005750563115 851.8133384500842) rotate(0 18.87675238531824 0.36608825522603183)"><path d="M0.84 0.97 C7.09 0.87, 31.97 -0.39, 37.93 -0.22 M-0.18 0.43 C5.94 0.4, 31.45 0.77, 37.41 0.73" stroke="#862e9c" stroke-width="1" fill="none"></path></g></g><g transform="translate(708.1015778042847 850.8441465839484) rotate(0 5.0980146905639 9.391079693143979)"><text x="0" y="12.782159386287958" font-family="Virgil, Segoe UI Emoji" font-size="15.025727509030359px" fill="#862e9c" text-anchor="start" style="white-space: pre;" direction="ltr">S</text></g><g transform="translate(773.8080557373969 842.0421316952578) rotate(0 6.04164317100458 12.438677116774102)"><text x="0" y="17.877354233548203" font-family="Virgil, Segoe UI Emoji" font-size="19.901883386838556px" fill="#862e9c" text-anchor="start" style="white-space: pre;" direction="ltr">q</text></g><g transform="translate(815.2889480028466 820.6811582527215) rotate(0 5 17.5)"><text x="0" y="25" font-family="Virgil, Segoe UI Emoji" font-size="28px" fill="#862e9c" text-anchor="start" style="white-space: pre;" direction="ltr">1</text></g><g transform="translate(813.0084990103783 843.6266681096055) rotate(0 8 17.5)"><text x="0" y="25" font-family="Virgil, Segoe UI Emoji" font-size="28px" fill="#862e9c" text-anchor="start" style="white-space: pre;" direction="ltr">h</text></g><g transform="translate(982.7706401100413 831.4665377410237) rotate(0 39.5 18)"><text x="39.5" y="25" font-family="Virgil, Segoe UI Emoji" font-size="28px" fill="#c92a2a" text-anchor="middle" style="white-space: pre;" direction="ltr">46/13</text></g><g stroke-linecap="round" transform="translate(954.7493564403635 640.4102014020161) rotate(0 60.972318018364035 42.042311558638175)"><path d="M107.42 18.39 C113.97 23.75, 119.04 30.44, 120.4 37.32 C121.76 44.21, 119.38 53.53, 115.57 59.69 C111.77 65.84, 105.61 70.15, 97.58 74.27 C89.56 78.38, 77.65 83.28, 67.41 84.39 C57.17 85.51, 45.36 83.56, 36.15 80.98 C26.94 78.41, 17.85 74.64, 12.14 68.95 C6.43 63.25, 3 53.7, 1.88 46.8 C0.76 39.9, 1.95 33.84, 5.42 27.54 C8.89 21.24, 15.1 13.24, 22.7 9 C30.3 4.76, 40.53 3.36, 51 2.11 C61.47 0.86, 73.47 -4.83, 85.52 1.49 C97.57 7.82, 119.43 28.92, 123.3 40.05 C127.18 51.18, 109.81 67.73, 108.77 68.27 M14.9 16.97 C19.99 11.29, 29.56 4.01, 38.48 1.55 C47.39 -0.91, 58.22 0.72, 68.4 2.19 C78.58 3.66, 91.15 6.69, 99.57 10.36 C108 14.04, 115.64 18.46, 118.94 24.23 C122.24 30.01, 120.91 38.22, 119.37 45.01 C117.84 51.8, 115.47 58.68, 109.74 64.97 C104.01 71.27, 94.61 79.32, 84.99 82.76 C75.38 86.21, 62.59 86.73, 52.05 85.65 C41.51 84.56, 29.87 80.59, 21.75 76.25 C13.63 71.91, 6.61 65.92, 3.31 59.6 C0.01 53.27, 0.13 45.54, 1.94 38.28 C3.75 31.02, 11.91 19.41, 14.17 16.05 C16.43 12.68, 14.61 17.54, 15.5 18.09" stroke="#e67700" stroke-width="1" fill="none"></path></g><g stroke-linecap="round" transform="translate(963.3235250068656 818.1791444877839) rotate(0 58.930349400125124 34.49551237040805)"><path d="M66.16 1.68 C75.17 1.9, 86.02 3.65, 94.05 6.78 C102.07 9.91, 110.39 14.91, 114.31 20.49 C118.22 26.06, 119.16 34.52, 117.55 40.25 C115.93 45.99, 110.86 50.33, 104.62 54.9 C98.38 59.47, 89.1 65.28, 80.1 67.68 C71.11 70.08, 59.93 70.5, 50.65 69.3 C41.38 68.09, 32.19 64.03, 24.46 60.48 C16.73 56.93, 8.59 53.08, 4.27 48 C-0.05 42.91, -2.63 35.52, -1.45 29.96 C-0.27 24.4, 5.24 19.47, 11.33 14.65 C17.42 9.82, 24.7 3.1, 35.08 1.01 C45.46 -1.08, 66.2 1.91, 73.61 2.09 C81.03 2.27, 80.07 1.86, 79.55 2.12 M15.8 13.25 C20.96 8.61, 31.59 6.14, 40.21 3.58 C48.82 1.02, 58.32 -3.16, 67.49 -2.1 C76.67 -1.03, 87.88 5.47, 95.27 9.97 C102.66 14.46, 107.9 19.81, 111.82 24.88 C115.75 29.94, 120.41 34.91, 118.82 40.38 C117.24 45.86, 109.17 52.84, 102.31 57.73 C95.45 62.61, 86.98 67.72, 77.65 69.69 C68.32 71.66, 55.78 70.73, 46.31 69.54 C36.84 68.35, 27.82 66.83, 20.82 62.56 C13.82 58.29, 7.24 49.86, 4.3 43.94 C1.36 38.02, 1.62 32.02, 3.18 27.06 C4.75 22.1, 12.15 16.89, 13.68 14.18 C15.2 11.47, 11.34 10.42, 12.34 10.81" stroke="#e67700" stroke-width="1" fill="none"></path></g><g stroke-linecap="round"><g transform="translate(1349.5250986133399 72.51086939871516) rotate(0 -74.01830431006681 84.4843868658061)"><path d="M-0.72 0.03 C-25.59 28.22, -123.81 140.59, -148.78 168.89 M1.1 -1 C-23.87 27.34, -123.67 141.27, -149.14 169.97" stroke="#c92a2a" stroke-width="1" fill="none"></path></g><g transform="translate(1349.5250986133399 72.51086939871516) rotate(0 -74.01830431006681 84.4843868658061)"><path d="M-138.15 143.92 C-143.41 150.29, -145.51 161.18, -149.29 171.71 M-138.81 141.45 C-141.63 149.27, -142.76 154.54, -148.83 170.37" stroke="#c92a2a" stroke-width="1" fill="none"></path></g><g transform="translate(1349.5250986133399 72.51086939871516) rotate(0 -74.01830431006681 84.4843868658061)"><path d="M-122.75 157.49 C-133.17 159.19, -140.46 165.52, -149.29 171.71 M-123.41 155.02 C-129.82 159.77, -134.51 161.9, -148.83 170.37" stroke="#c92a2a" stroke-width="1" fill="none"></path></g></g><g transform="translate(1359.412789503867 52.710424197595785) rotate(0 99.5 17.5)"><text x="0" y="25" font-family="Virgil, Segoe UI Emoji" font-size="28px" fill="#fff" text-anchor="start" style="white-space: pre;" direction="ltr">макс. системы</text></g><g transform="translate(725.33983725764 303.9604796399936) rotate(0 34.5 16.00000000000003)"><text x="0" y="22" font-family="Virgil, Segoe UI Emoji" font-size="24.800860136503907px" fill="#862e9c" text-anchor="start" style="white-space: pre;" direction="ltr">n!(1- )</text></g><g transform="translate(971.4935388091367 275.18856205056323) rotate(0 14.5 35.50000000000003)"><text x="0" y="25.5" font-family="Virgil, Segoe UI Emoji" font-size="28px" fill="#c92a2a" text-anchor="start" style="white-space: pre;" direction="ltr">1</text><text x="0" y="61" font-family="Virgil, Segoe UI Emoji" font-size="28px" fill="#c92a2a" text-anchor="start" style="white-space: pre;" direction="ltr">13</text></g><g stroke-linecap="round"><g transform="translate(962.8611305970019 309.2911751460558) rotate(0 16.915030580585153 -0.49937010229160705)"><path d="M-1.11 0.55 C4.71 0.19, 28.85 -1.32, 34.94 -1.55 M0.51 -0.21 C6.17 -0.51, 28.26 -0.61, 34.01 -0.51" stroke="#c92a2a" stroke-width="1" fill="none"></path></g></g><g transform="translate(949.5819703287223 303.47618923777424) rotate(316.5837460884836 91.32933633738264 10.306758959704638)"><text x="0" y="14.613517919409272" font-family="Virgil, Segoe UI Emoji" font-size="16.032736159540526px" fill="#c92a2a" text-anchor="start" style="white-space: pre;" direction="ltr">(0.076923076923076)</text></g><g transform="translate(801.3055973981243 288.5290982580947) rotate(0 39 18)"><text x="0" y="25" font-family="Virgil, Segoe UI Emoji" font-size="28px" fill="#862e9c" text-anchor="start" style="white-space: pre;" direction="ltr">or Σ </text></g><g stroke-linecap="round"><g transform="translate(849.43436995858 273.72353314114633) rotate(0 -6.761227539680931 29.804283959791235)"><path d="M0.35 1.14 C-1.21 3.72, -6.82 11, -9.1 15.96 C-11.37 20.93, -13.47 25.72, -13.28 30.94 C-13.09 36.15, -10.13 42.58, -7.95 47.24 C-5.77 51.91, -1.69 56.85, -0.2 58.92 M-0.93 0.69 C-2.62 2.91, -7.63 9.62, -9.77 14.34 C-11.92 19.07, -14.24 23.39, -13.82 29.05 C-13.39 34.72, -9.22 43.38, -7.21 48.32 C-5.21 53.26, -2.86 57.01, -1.77 58.68" stroke="#862e9c" stroke-width="1" fill="none"></path></g></g><g transform="translate(868.9396834247602 274.05893161374445) rotate(0 9.5 27.5)"><text x="0" y="19.5" font-family="Virgil, Segoe UI Emoji" font-size="21.84217919664951px" fill="#862e9c" text-anchor="start" style="white-space: pre;" direction="ltr">ρ</text><text x="0" y="47" font-family="Virgil, Segoe UI Emoji" font-size="21.84217919664951px" fill="#862e9c" text-anchor="start" style="white-space: pre;" direction="ltr">n!</text></g><g stroke-linecap="round"><g transform="translate(865.7644627368891 304.7858093043851) rotate(0 9.954041679378065 -0.9460953470482423)"><path d="M0.86 -0.39 C4.08 -0.84, 16.95 -1.33, 20.06 -1.5 M-0.15 -1.64 C2.81 -1.42, 15.21 -0.47, 18.88 -0.26" stroke="#862e9c" stroke-width="1" fill="none"></path></g></g><g transform="translate(844.2811899596982 310.3671807986707) rotate(0 12.58184847401867 8.46855185751258)"><text x="0" y="11.93710371502518" font-family="Virgil, Segoe UI Emoji" font-size="13.549682972020163px" fill="#862e9c" text-anchor="start" style="white-space: pre;" direction="ltr">n=0</text></g><g transform="translate(844.7538786782181 280.1781247600904) rotate(0 9.529695043052016 8.552290423251804)"><text x="0" y="12.10458084650362" font-family="Virgil, Segoe UI Emoji" font-size="13.683664677202898px" fill="#862e9c" text-anchor="start" style="white-space: pre;" direction="ltr">C-1</text></g><g stroke-linecap="round"><g transform="translate(776.5924115804294 321.92229009502546) rotate(0 6.180779457483823 -0.06874473137247605)"><path d="M-0.89 -1.06 C1.35 -1.31, 10.92 -0.91, 13.26 -0.8 M0.84 1 C3.03 0.84, 10.83 0.5, 12.83 0.48" stroke="#862e9c" stroke-width="1" fill="none"></path></g></g><g transform="translate(776.1499202924078 295.393304940716) rotate(0 4.8773929575925195 12.54186760523777)"><text x="0" y="18.083735210475595" font-family="Virgil, Segoe UI Emoji" font-size="19.50957183036991px" fill="#862e9c" text-anchor="start" style="white-space: pre;" direction="ltr">ρ</text></g><g transform="translate(773.736488583346 310.4077995892182) rotate(0 6.66061881828989 14.986392341152253)"><text x="0" y="21.972784682304564" font-family="Virgil, Segoe UI Emoji" font-size="23.312165864014656px" fill="#862e9c" text-anchor="start" style="white-space: pre;" direction="ltr">c</text></g><g transform="translate(888.7345689067156 290.4704322267895) rotate(0 14.096573651873086 13.715585174795478)"><text x="0" y="19.431170349590957" font-family="Virgil, Segoe UI Emoji" font-size="21.33535471634851px" fill="#862e9c" text-anchor="start" style="white-space: pre;" direction="ltr">+m</text></g><g transform="translate(875.91143536614 269.17911380497327) rotate(0 5.5 12.5)"><text x="0" y="18" font-family="Virgil, Segoe UI Emoji" font-size="19.71669717651166px" fill="#862e9c" text-anchor="start" style="white-space: pre;" direction="ltr">n</text></g><g transform="translate(920.8971035710131 274.9075364822887) rotate(0 9.5 27.5)"><text x="0" y="19.5" font-family="Virgil, Segoe UI Emoji" font-size="21.84217919664951px" fill="#862e9c" text-anchor="start" style="white-space: pre;" direction="ltr">ρ</text><text x="0" y="47" font-family="Virgil, Segoe UI Emoji" font-size="21.84217919664951px" fill="#862e9c" text-anchor="start" style="white-space: pre;" direction="ltr">n!</text></g><g stroke-linecap="round"><g transform="translate(917.7218828831417 305.6344141729295) rotate(0 10.597489301932455 0.37452991248321155)"><path d="M-0.45 -0.52 C3.35 -0.64, 18.1 -0.98, 21.65 -1.07 M1.51 1.82 C5.36 1.92, 18.18 0.68, 21.3 0.4" stroke="#862e9c" stroke-width="1" fill="none"></path></g></g><g transform="translate(927.8688555123929 270.02771867351765) rotate(0 5.5 12.5)"><text x="0" y="18" font-family="Virgil, Segoe UI Emoji" font-size="19.71669717651166px" fill="#862e9c" text-anchor="start" style="white-space: pre;" direction="ltr">n</text></g><g stroke-linecap="round"><g transform="translate(936.5090046091948 272.95711522536476) rotate(0 4.632690743924854 33.004951297104185)"><path d="M-0.98 -0.01 C0.75 5.6, 9.96 22.12, 10.24 32.61 C10.53 43.1, 2.29 57.26, 0.72 62.92 C-0.84 68.58, 0.89 65.93, 0.88 66.57 M0.7 -1.07 C2.29 4.84, 9.45 23.81, 9.28 34.15 C9.11 44.49, 0.97 55.48, -0.31 60.97 C-1.59 66.46, 1.64 66.12, 1.62 67.08" stroke="#862e9c" stroke-width="1" fill="none"></path></g></g><g transform="translate(935.8515713088527 255.54216831364454) rotate(0 9.30032255118897 15.50053758531493)"><text x="0" y="21.001075170629882" font-family="Virgil, Segoe UI Emoji" font-size="24.800860136503903px" fill="#862e9c" text-anchor="start" style="white-space: pre;" direction="ltr">-1</text></g><g transform="translate(760.3911964667427 520.3900682793285) rotate(0 49.5 18)"><text x="0" y="25" font-family="Virgil, Segoe UI Emoji" font-size="28px" fill="#862e9c" text-anchor="start" style="white-space: pre;" direction="ltr">or Q=P</text></g><g transform="translate(851.943583300188 534.2792809116861) rotate(0 2.4232718069663406 10.601814155477655)"><text x="2.4232718069663255" y="15.203628310955338" font-family="Virgil, Segoe UI Emoji" font-size="16.96290264876427px" fill="#862e9c" text-anchor="middle" style="white-space: pre;" direction="ltr">i</text></g><g transform="translate(730.7543367895026 560.0936047590515) rotate(0 59.00000000000006 18)"><text x="0" y="25" font-family="Virgil, Segoe UI Emoji" font-size="28px" fill="#862e9c" text-anchor="start" style="white-space: pre;" direction="ltr">or P=1-Q</text></g><g transform="translate(751.3804647834006 661.0218449086209) rotate(0 22 18)"><text x="0" y="25" font-family="Virgil, Segoe UI Emoji" font-size="28px" fill="#862e9c" text-anchor="start" style="white-space: pre;" direction="ltr">or </text></g><g transform="translate(790.3982654744427 642.0023405561898) rotate(0 14.5 35.5)"><text x="0" y="25.5" font-family="Virgil, Segoe UI Emoji" font-size="28px" fill="#862e9c" text-anchor="start" style="white-space: pre;" direction="ltr">ρ</text><text x="0" y="61" font-family="Virgil, Segoe UI Emoji" font-size="28px" fill="#862e9c" text-anchor="start" style="white-space: pre;" direction="ltr">C!</text></g><g stroke-linecap="round"><g transform="translate(783.7828950107732 679.8776288638348) rotate(0 14.735289727825375 -0.7398100017899196)"><path d="M-1.14 -0.39 C3.56 -0.38, 23.29 0.33, 28.32 0.34 M0.46 -1.64 C5.54 -1.99, 26 -1.8, 30.62 -1.35" stroke="#862e9c" stroke-width="1" fill="none"></path></g></g><g transform="translate(827.552883956381 643.8326454293685) rotate(0 41.5 35.5)"><text x="41.5" y="25.5" font-family="Virgil, Segoe UI Emoji" font-size="28px" fill="#862e9c" text-anchor="middle" style="white-space: pre;" direction="ltr">m(m+1)</text><text x="41.5" y="61" font-family="Virgil, Segoe UI Emoji" font-size="28px" fill="#862e9c" text-anchor="middle" style="white-space: pre;" direction="ltr">2</text></g><g stroke-linecap="round"><g transform="translate(825.1960569214873 677.5143231209942) rotate(0 46.63764214774528 0.7351824911045242)"><path d="M-0.05 -0.97 C15.3 -0.56, 77.19 2.18, 92.7 2.44 M-1.53 1.13 C14.12 1.24, 78.63 0.84, 94.8 0.9" stroke="#862e9c" stroke-width="1" fill="none"></path></g></g><g transform="translate(920.3001540517555 662.4120940814787) rotate(0 10.5 18)"><text x="10.5" y="25" font-family="Virgil, Segoe UI Emoji" font-size="28px" fill="#862e9c" text-anchor="middle" style="white-space: pre;" direction="ltr">P</text></g><g transform="translate(927.0387206973469 680.2337606893835) rotate(0 5.250902172090036 8.59238537251099)"><text x="5.2509021720900435" y="12.184770745021954" font-family="Virgil, Segoe UI Emoji" font-size="13.365932801683748px" fill="#862e9c" text-anchor="middle" style="white-space: pre;" direction="ltr">0</text></g><g transform="translate(796.8997775581056 640.7006367813433) rotate(0 8 13)"><text x="8" y="19" font-family="Virgil, Segoe UI Emoji" font-size="20.63838816216052px" fill="#862e9c" text-anchor="middle" style="white-space: pre;" direction="ltr">C</text></g><g stroke-linecap="round"><g transform="translate(994.509314310701 682.4822934910507) rotate(0 22.84258681987501 -0.19094206430014538)"><path d="M0.63 0.42 C8.39 0.25, 38.85 -0.78, 46.19 -0.8 M-0.5 -0.4 C7.23 -0.46, 38.43 -0.04, 45.77 0.31" stroke="#c92a2a" stroke-width="1" fill="none"></path></g></g><g stroke-linecap="round"><g transform="translate(993.8858038593985 794.4124761200569) rotate(0 26.18430200174555 0.6827442568232982)"><path d="M-1.17 1.18 C7.2 1.15, 42.25 -0.1, 51.2 -0.14 M0.42 0.76 C9.09 0.93, 44.92 1.72, 53.54 1.46" stroke="#c92a2a" stroke-width="1" fill="none"></path></g></g></svg>